<svg width="1512" height="982" viewBox="0 0 1512 982" fill="none" xmlns="http://www.w3.org/2000/svg">
<path d="M619.162 324.238L687.052 312.233C701.736 309.636 715.745 319.434 718.341 334.118L742.182 468.933L647.704 485.641L619.162 324.238Z" stroke="#03ACE6" stroke-opacity="0.7" stroke-width="6"/>
<path d="M511.9 343.206L579.791 331.2L596.498 425.679L528.608 437.684C513.924 440.281 499.915 430.482 497.319 415.798L490.015 374.495C487.418 359.811 497.217 345.803 511.9 343.206Z" stroke="#03ACE6" stroke-opacity="0.7" stroke-width="6"/>
<rect x="375.134" y="505.426" width="231.869" height="27.9813" transform="rotate(-10.0284 375.134 505.426)" stroke="#03ACE6" stroke-opacity="0.7" stroke-width="6"/>
<path d="M351.464 371.577L445.942 354.87L462.65 449.348L394.759 461.353C380.075 463.95 366.066 454.152 363.47 439.468L351.464 371.577Z" stroke="#03ACE6" stroke-opacity="0.7" stroke-width="6"/>
<path d="M218.828 395.032L286.719 383.027C301.402 380.43 315.411 390.228 318.008 404.912L341.848 539.727L247.37 556.435L218.828 395.032Z" stroke="#03ACE6" stroke-opacity="0.7" stroke-width="6"/>
<path d="M111.567 414L179.458 401.994L196.165 496.472L128.274 508.478C113.59 511.075 99.5816 501.276 96.985 486.592L89.681 445.289C87.0844 430.605 96.883 416.596 111.567 414Z" stroke="#03ACE6" stroke-opacity="0.7" stroke-width="6"/>
<rect x="-25.2002" y="576.219" width="231.869" height="27.9813" transform="rotate(-10.0284 -25.2002 576.219)" stroke="#03ACE6" stroke-opacity="0.7" stroke-width="6"/>
<path d="M-48.8697 442.371L45.6084 425.664L62.3157 520.142L-5.57501 532.147C-20.2589 534.744 -34.2675 524.946 -36.8641 510.262L-48.8697 442.371Z" stroke="#03ACE6" stroke-opacity="0.7" stroke-width="6"/>
<path d="M619.98 132.324L687.87 120.318C702.554 117.721 716.563 127.52 719.159 142.204L743 277.019L648.521 293.726L619.98 132.324Z" stroke="#03ACE6" stroke-opacity="0.7" stroke-width="6"/>
<path d="M512.718 151.291L580.609 139.286L597.316 233.764L529.425 245.77C514.741 248.366 500.733 238.568 498.136 223.884L490.832 182.58C488.236 167.897 498.034 153.888 512.718 151.291Z" stroke="#03ACE6" stroke-opacity="0.7" stroke-width="6"/>
<rect x="375.951" y="313.511" width="231.869" height="27.9813" transform="rotate(-10.0284 375.951 313.511)" stroke="#03ACE6" stroke-opacity="0.7" stroke-width="6"/>
<path d="M352.282 179.662L446.76 162.955L463.468 257.433L395.577 269.439C380.893 272.036 366.884 262.237 364.288 247.553L352.282 179.662Z" stroke="#03ACE6" stroke-opacity="0.7" stroke-width="6"/>
<path d="M219.646 203.118L287.536 191.112C302.22 188.515 316.229 198.314 318.825 212.998L342.666 347.813L248.188 364.52L219.646 203.118Z" stroke="#03ACE6" stroke-opacity="0.7" stroke-width="6"/>
<path d="M112.385 222.085L180.275 210.08L196.983 304.558L129.092 316.564C114.408 319.16 100.399 309.362 97.8027 294.678L90.4987 253.374C87.9021 238.691 97.7007 224.682 112.385 222.085Z" stroke="#03ACE6" stroke-opacity="0.7" stroke-width="6"/>
<rect x="-24.3826" y="384.305" width="231.869" height="27.9813" transform="rotate(-10.0284 -24.3826 384.305)" stroke="#03ACE6" stroke-opacity="0.7" stroke-width="6"/>
<path d="M-48.0519 250.456L46.4263 233.749L63.1336 328.227L-4.75714 340.233C-19.441 342.83 -33.4496 333.031 -36.0463 318.347L-48.0519 250.456Z" stroke="#03ACE6" stroke-opacity="0.7" stroke-width="6"/>
<path d="M503.508 -38.1236L571.399 -50.1292C586.083 -52.7259 600.092 -42.9272 602.688 -28.2434L626.529 106.572L532.05 123.279L503.508 -38.1236Z" stroke="#03ACE6" stroke-opacity="0.7" stroke-width="6"/>
<path d="M396.247 -19.1558L464.138 -31.1614L480.845 63.3168L412.954 75.3224C398.27 77.919 384.262 68.1204 381.665 53.4365L374.361 12.1333C371.765 -2.55056 381.563 -16.5592 396.247 -19.1558Z" stroke="#03ACE6" stroke-opacity="0.7" stroke-width="6"/>
<rect x="259.48" y="143.064" width="231.869" height="27.9813" transform="rotate(-10.0284 259.48 143.064)" stroke="#03ACE6" stroke-opacity="0.7" stroke-width="6"/>
<path d="M235.811 9.21514L330.289 -7.49212L346.996 86.9861L279.106 98.9917C264.422 101.588 250.413 91.7897 247.816 77.1058L235.811 9.21514Z" stroke="#03ACE6" stroke-opacity="0.7" stroke-width="6"/>
<path d="M103.174 32.6703L171.065 20.6646C185.749 18.068 199.758 27.8666 202.354 42.5505L226.195 177.366L131.716 194.073L103.174 32.6703Z" stroke="#03ACE6" stroke-opacity="0.7" stroke-width="6"/>
<path d="M-4.08688 51.6381L63.8038 39.6325L80.5111 134.111L12.6204 146.116C-2.06349 148.713 -16.0721 138.914 -18.6688 124.23L-25.9727 82.9272C-28.5694 68.2434 -18.7707 54.2347 -4.08688 51.6381Z" stroke="#03ACE6" stroke-opacity="0.7" stroke-width="6"/>
<rect x="-140.854" y="213.858" width="231.869" height="27.9813" transform="rotate(-10.0284 -140.854 213.858)" stroke="#03ACE6" stroke-opacity="0.7" stroke-width="6"/>
<path d="M1421.53 182.349L1489.42 170.343C1504.11 167.747 1518.12 177.545 1520.71 192.229L1544.55 327.044L1450.07 343.752L1421.53 182.349Z" stroke="#03ACE6" stroke-opacity="0.7" stroke-width="6"/>
<path d="M1314.27 201.317L1382.16 189.311L1398.87 283.79L1330.98 295.795C1316.29 298.392 1302.29 288.593 1299.69 273.909L1292.39 232.606C1289.79 217.922 1299.59 203.914 1314.27 201.317Z" stroke="#03ACE6" stroke-opacity="0.7" stroke-width="6"/>
<rect x="1177.5" y="363.537" width="231.869" height="27.9813" transform="rotate(-10.0284 1177.5 363.537)" stroke="#03ACE6" stroke-opacity="0.7" stroke-width="6"/>
<path d="M1153.84 229.688L1248.31 212.981L1265.02 307.459L1197.13 319.464C1182.45 322.061 1168.44 312.262 1165.84 297.579L1153.84 229.688Z" stroke="#03ACE6" stroke-opacity="0.7" stroke-width="6"/>
<path d="M1021.2 253.143L1089.09 241.137C1103.77 238.541 1117.78 248.339 1120.38 263.023L1144.22 397.838L1049.74 414.546L1021.2 253.143Z" stroke="#03ACE6" stroke-opacity="0.7" stroke-width="6"/>
<path d="M913.938 272.111L981.828 260.105L998.536 354.583L930.645 366.589C915.961 369.186 901.952 359.387 899.356 344.703L892.052 303.4C889.455 288.716 899.254 274.707 913.938 272.111Z" stroke="#03ACE6" stroke-opacity="0.7" stroke-width="6"/>
<rect x="777.17" y="434.33" width="231.869" height="27.9813" transform="rotate(-10.0284 777.17 434.33)" stroke="#03ACE6" stroke-opacity="0.7" stroke-width="6"/>
<path d="M753.501 300.482L847.979 283.775L864.687 378.253L796.796 390.258C782.112 392.855 768.103 383.056 765.507 368.373L753.501 300.482Z" stroke="#03ACE6" stroke-opacity="0.7" stroke-width="6"/>
<path d="M1422.35 -9.56543L1490.24 -21.571C1504.92 -24.1677 1518.93 -14.3691 1521.53 0.314789L1545.37 135.13L1450.89 151.837L1422.35 -9.56543Z" stroke="#03ACE6" stroke-opacity="0.7" stroke-width="6"/>
<path d="M1315.09 9.40237L1382.98 -2.60323L1399.69 91.875L1331.8 103.881C1317.11 106.477 1303.1 96.6786 1300.51 81.9947L1293.2 40.6915C1290.61 26.0076 1300.41 11.999 1315.09 9.40237Z" stroke="#03ACE6" stroke-opacity="0.7" stroke-width="6"/>
<rect x="1178.32" y="171.622" width="231.869" height="27.9813" transform="rotate(-10.0284 1178.32 171.622)" stroke="#03ACE6" stroke-opacity="0.7" stroke-width="6"/>
<path d="M1154.65 37.7732L1249.13 21.0659L1265.84 115.544L1197.95 127.55C1183.26 130.146 1169.26 120.348 1166.66 105.664L1154.65 37.7732Z" stroke="#03ACE6" stroke-opacity="0.7" stroke-width="6"/>
<path d="M1022.02 61.2284L1089.91 49.2228C1104.59 46.6262 1118.6 56.4248 1121.2 71.1086L1145.04 205.924L1050.56 222.631L1022.02 61.2284Z" stroke="#03ACE6" stroke-opacity="0.7" stroke-width="6"/>
<path d="M914.756 80.1961L982.646 68.1905L999.354 162.669L931.463 174.674C916.779 177.271 902.77 167.472 900.174 152.788L892.87 111.485C890.273 96.8014 900.072 82.7928 914.756 80.1961Z" stroke="#03ACE6" stroke-opacity="0.7" stroke-width="6"/>
<rect x="777.989" y="242.416" width="231.869" height="27.9813" transform="rotate(-10.0284 777.989 242.416)" stroke="#03ACE6" stroke-opacity="0.7" stroke-width="6"/>
<path d="M754.319 108.567L848.797 91.86L865.505 186.338L797.614 198.344C782.93 200.94 768.921 191.142 766.325 176.458L754.319 108.567Z" stroke="#03ACE6" stroke-opacity="0.7" stroke-width="6"/>
<rect x="1061.85" y="1.17465" width="231.869" height="27.9813" transform="rotate(-10.0284 1061.85 1.17465)" stroke="#03ACE6" stroke-opacity="0.7" stroke-width="6"/>
<path d="M905.545 -109.219L973.436 -121.224C988.12 -123.821 1002.13 -114.022 1004.72 -99.3386L1028.57 35.4765L934.087 52.1837L905.545 -109.219Z" stroke="#03ACE6" stroke-opacity="0.7" stroke-width="6"/>
<path d="M798.284 -90.251L866.174 -102.257L882.882 -7.77846L814.991 4.22715C800.307 6.8238 786.298 -2.97482 783.702 -17.6587L776.398 -58.9619C773.801 -73.6458 783.6 -87.6544 798.284 -90.251Z" stroke="#03ACE6" stroke-opacity="0.7" stroke-width="6"/>
<rect x="661.517" y="71.9686" width="231.869" height="27.9813" transform="rotate(-10.0284 661.517 71.9686)" stroke="#03ACE6" stroke-opacity="0.7" stroke-width="6"/>
<path d="M637.848 -61.88L732.326 -78.5873L749.033 15.8909L681.142 27.8965C666.459 30.4932 652.45 20.6946 649.853 6.01069L637.848 -61.88Z" stroke="#03ACE6" stroke-opacity="0.7" stroke-width="6"/>
<path d="M687.246 921.498L754.399 909.623C769.083 907.027 783.092 916.825 785.688 931.509L810.591 1072.33L716.85 1088.91L687.246 921.498Z" stroke="#03ACE6" stroke-opacity="0.7" stroke-width="6"/>
<path d="M580.967 940.292L648.121 928.417L665.465 1026.5L598.312 1038.37C583.628 1040.97 569.619 1031.17 567.023 1016.49L559.081 971.582C556.485 956.898 566.283 942.889 580.967 940.292Z" stroke="#03ACE6" stroke-opacity="0.7" stroke-width="6"/>
<path d="M421.514 968.49L515.255 951.913L532.6 1050L465.446 1061.87C450.762 1064.47 436.754 1054.67 434.157 1039.98L421.514 968.49Z" stroke="#03ACE6" stroke-opacity="0.7" stroke-width="6"/>
<path d="M289.852 991.773L357.005 979.897C371.689 977.301 385.698 987.099 388.294 1001.78L413.197 1142.61L319.456 1159.18L289.852 991.773Z" stroke="#03ACE6" stroke-opacity="0.7" stroke-width="6"/>
<path d="M686.635 722.951L753.789 711.076C768.473 708.479 782.481 718.278 785.078 732.962L809.981 873.784L716.24 890.361L686.635 722.951Z" stroke="#03ACE6" stroke-opacity="0.7" stroke-width="6"/>
<path d="M580.357 741.745L647.51 729.87L664.855 827.952L597.701 839.827C583.018 842.424 569.009 832.626 566.412 817.942L558.471 773.034C555.874 758.35 565.673 744.342 580.357 741.745Z" stroke="#03ACE6" stroke-opacity="0.7" stroke-width="6"/>
<rect x="445.423" y="908.597" width="230.123" height="29.2014" transform="rotate(-10.0284 445.423 908.597)" stroke="#03ACE6" stroke-opacity="0.7" stroke-width="6"/>
<path d="M420.904 769.942L514.645 753.365L531.989 851.448L464.836 863.323C450.152 865.92 436.143 856.121 433.547 841.437L420.904 769.942Z" stroke="#03ACE6" stroke-opacity="0.7" stroke-width="6"/>
<path d="M289.241 793.225L356.395 781.35C371.079 778.753 385.087 788.552 387.684 803.236L412.586 944.058L318.845 960.635L289.241 793.225Z" stroke="#03ACE6" stroke-opacity="0.7" stroke-width="6"/>
<path d="M182.963 812.019L250.117 800.144L267.461 898.226L200.308 910.102C185.624 912.698 171.615 902.9 169.019 888.216L161.077 843.308C158.481 828.624 168.279 814.616 182.963 812.019Z" stroke="#03ACE6" stroke-opacity="0.7" stroke-width="6"/>
<rect x="48.0288" y="978.871" width="230.123" height="29.2014" transform="rotate(-10.0284 48.0288 978.871)" stroke="#03ACE6" stroke-opacity="0.7" stroke-width="6"/>
<path d="M23.5096 840.216L117.251 823.64L134.595 921.722L67.4417 933.597C52.7579 936.194 38.7492 926.395 36.1526 911.711L23.5096 840.216Z" stroke="#03ACE6" stroke-opacity="0.7" stroke-width="6"/>
<path d="M569.603 545.744L636.756 533.869C651.44 531.272 665.449 541.071 668.045 555.755L692.948 696.577L599.207 713.154L569.603 545.744Z" stroke="#03ACE6" stroke-opacity="0.7" stroke-width="6"/>
<path d="M463.324 564.538L530.478 552.663L547.822 650.745L480.669 662.62C465.985 665.217 451.976 655.418 449.38 640.735L441.439 595.827C438.842 581.143 448.64 567.135 463.324 564.538Z" stroke="#03ACE6" stroke-opacity="0.7" stroke-width="6"/>
<rect x="328.39" y="731.389" width="230.123" height="29.2014" transform="rotate(-10.0284 328.39 731.389)" stroke="#03ACE6" stroke-opacity="0.7" stroke-width="6"/>
<path d="M303.871 592.735L397.612 576.158L414.957 674.241L347.803 686.116C333.119 688.713 319.111 678.914 316.514 664.23L303.871 592.735Z" stroke="#03ACE6" stroke-opacity="0.7" stroke-width="6"/>
<path d="M172.209 616.018L239.362 604.143C254.046 601.546 268.055 611.345 270.651 626.028L295.554 766.851L201.813 783.428L172.209 616.018Z" stroke="#03ACE6" stroke-opacity="0.7" stroke-width="6"/>
<path d="M65.9302 634.812L133.084 622.937L150.428 721.019L83.2749 732.894C68.591 735.491 54.5824 725.692 51.9857 711.009L44.0444 666.101C41.4477 651.417 51.2463 637.409 65.9302 634.812Z" stroke="#03ACE6" stroke-opacity="0.7" stroke-width="6"/>
<rect x="-69.004" y="801.664" width="230.123" height="29.2014" transform="rotate(-10.0284 -69.004 801.664)" stroke="#03ACE6" stroke-opacity="0.7" stroke-width="6"/>
<path d="M-93.5234 663.009L0.21763 646.432L17.5623 744.515L-49.5912 756.39C-64.2751 758.987 -78.2837 749.188 -80.8804 734.504L-93.5234 663.009Z" stroke="#03ACE6" stroke-opacity="0.7" stroke-width="6"/>
<path d="M1483.72 780.651L1550.88 768.776C1565.56 766.179 1579.57 775.978 1582.17 790.662L1607.07 931.484L1513.33 948.061L1483.72 780.651Z" stroke="#03ACE6" stroke-opacity="0.7" stroke-width="6"/>
<path d="M1377.45 799.445L1444.6 787.57L1461.94 885.653L1394.79 897.528C1380.11 900.125 1366.1 890.326 1363.5 875.642L1355.56 830.735C1352.96 816.051 1362.76 802.042 1377.45 799.445Z" stroke="#03ACE6" stroke-opacity="0.7" stroke-width="6"/>
<rect x="1242.51" y="966.297" width="230.123" height="29.2014" transform="rotate(-10.0284 1242.51 966.297)" stroke="#03ACE6" stroke-opacity="0.7" stroke-width="6"/>
<path d="M1217.99 827.643L1311.73 811.066L1329.08 909.148L1261.92 921.023C1247.24 923.62 1233.23 913.821 1230.64 899.138L1217.99 827.643Z" stroke="#03ACE6" stroke-opacity="0.7" stroke-width="6"/>
<path d="M1086.33 850.925L1153.48 839.05C1168.17 836.454 1182.18 846.252 1184.77 860.936L1209.68 1001.76L1115.93 1018.34L1086.33 850.925Z" stroke="#03ACE6" stroke-opacity="0.7" stroke-width="6"/>
<path d="M980.052 869.719L1047.21 857.844L1064.55 955.927L997.397 967.802C982.713 970.398 968.704 960.6 966.108 945.916L958.166 901.008C955.57 886.325 965.368 872.316 980.052 869.719Z" stroke="#03ACE6" stroke-opacity="0.7" stroke-width="6"/>
<path d="M820.599 897.917L914.34 881.34L931.684 979.422L864.531 991.297C849.847 993.894 835.838 984.096 833.241 969.412L820.599 897.917Z" stroke="#03ACE6" stroke-opacity="0.7" stroke-width="6"/>
<path d="M1483.11 582.104L1550.27 570.229C1564.95 567.632 1578.96 577.431 1581.56 592.115L1606.46 732.937L1512.72 749.514L1483.11 582.104Z" stroke="#03ACE6" stroke-opacity="0.7" stroke-width="6"/>
<path d="M1376.84 600.898L1443.99 589.023L1461.33 687.105L1394.18 698.981C1379.5 701.577 1365.49 691.779 1362.89 677.095L1354.95 632.187C1352.35 617.503 1362.15 603.495 1376.84 600.898Z" stroke="#03ACE6" stroke-opacity="0.7" stroke-width="6"/>
<rect x="1241.9" y="767.75" width="230.123" height="29.2014" transform="rotate(-10.0284 1241.9 767.75)" stroke="#03ACE6" stroke-opacity="0.7" stroke-width="6"/>
<path d="M1217.38 629.095L1311.12 612.518L1328.47 710.601L1261.32 722.476C1246.63 725.073 1232.62 715.274 1230.03 700.59L1217.38 629.095Z" stroke="#03ACE6" stroke-opacity="0.7" stroke-width="6"/>
<path d="M1085.72 652.378L1152.87 640.503C1167.56 637.906 1181.57 647.705 1184.16 662.389L1209.06 803.211L1115.32 819.788L1085.72 652.378Z" stroke="#03ACE6" stroke-opacity="0.7" stroke-width="6"/>
<path d="M979.442 671.172L1046.6 659.297L1063.94 757.379L996.787 769.254C982.103 771.851 968.094 762.052 965.497 747.369L957.556 702.461C954.959 687.777 964.758 673.769 979.442 671.172Z" stroke="#03ACE6" stroke-opacity="0.7" stroke-width="6"/>
<rect x="844.508" y="838.024" width="230.123" height="29.2014" transform="rotate(-10.0284 844.508 838.024)" stroke="#03ACE6" stroke-opacity="0.7" stroke-width="6"/>
<path d="M819.988 699.369L913.729 682.792L931.074 780.875L863.921 792.75C849.237 795.347 835.228 785.548 832.631 770.864L819.988 699.369Z" stroke="#03ACE6" stroke-opacity="0.7" stroke-width="6"/>
<path d="M1366.08 404.897L1433.23 393.022C1447.92 390.425 1461.93 400.224 1464.52 414.907L1489.43 555.73L1395.69 572.307L1366.08 404.897Z" stroke="#03ACE6" stroke-opacity="0.7" stroke-width="6"/>
<path d="M1259.8 423.691L1326.96 411.816L1344.3 509.898L1277.15 521.773C1262.46 524.37 1248.45 514.571 1245.86 499.888L1237.92 454.98C1235.32 440.296 1245.12 426.288 1259.8 423.691Z" stroke="#03ACE6" stroke-opacity="0.7" stroke-width="6"/>
<rect x="1124.87" y="590.542" width="230.123" height="29.2014" transform="rotate(-10.0284 1124.87 590.542)" stroke="#03ACE6" stroke-opacity="0.7" stroke-width="6"/>
<path d="M1100.35 451.888L1194.09 435.311L1211.44 533.394L1144.28 545.269C1129.6 547.865 1115.59 538.067 1112.99 523.383L1100.35 451.888Z" stroke="#03ACE6" stroke-opacity="0.7" stroke-width="6"/>
<path d="M968.687 475.171L1035.84 463.296C1050.52 460.699 1064.53 470.498 1067.13 485.181L1092.03 626.004L998.291 642.581L968.687 475.171Z" stroke="#03ACE6" stroke-opacity="0.7" stroke-width="6"/>
<path d="M862.408 493.965L929.562 482.09L946.907 580.172L879.753 592.047C865.069 594.644 851.061 584.845 848.464 570.161L840.523 525.254C837.926 510.57 847.725 496.561 862.408 493.965Z" stroke="#03ACE6" stroke-opacity="0.7" stroke-width="6"/>
<rect x="727.475" y="660.816" width="230.123" height="29.2014" transform="rotate(-10.0284 727.475 660.816)" stroke="#03ACE6" stroke-opacity="0.7" stroke-width="6"/>
<path d="M702.955 522.162L796.696 505.585L814.041 603.668L746.888 615.543C732.204 618.139 718.195 608.341 715.598 593.657L702.955 522.162Z" stroke="#03ACE6" stroke-opacity="0.7" stroke-width="6"/>
</svg>
