<svg width="750" height="500" viewBox="0 0 750 500" fill="none" xmlns="http://www.w3.org/2000/svg">
<path d="M127 332.79L123.07 326L121 327.2C120.695 327.381 120.344 327.471 119.99 327.459C119.635 327.446 119.291 327.332 119 327.13C118.678 326.918 118.344 326.724 118 326.55C117.697 326.392 117.443 326.153 117.267 325.861C117.09 325.568 116.998 325.232 117 324.89V322.5H109.17V324.89C109.172 325.232 109.08 325.568 108.903 325.861C108.727 326.153 108.473 326.392 108.17 326.55C107.826 326.724 107.492 326.918 107.17 327.13C106.878 327.332 106.535 327.446 106.18 327.459C105.826 327.471 105.475 327.381 105.17 327.2L103.1 326L99.1899 332.78L101.27 333.98C101.566 334.154 101.809 334.407 101.969 334.711C102.13 335.014 102.203 335.357 102.18 335.7C102.18 335.89 102.18 336.09 102.18 336.28C102.18 336.47 102.18 336.66 102.18 336.85C102.204 337.193 102.132 337.536 101.971 337.84C101.81 338.144 101.567 338.397 101.27 338.57L99.1899 339.78L103.1 346.56L105.18 345.36C105.485 345.179 105.836 345.089 106.19 345.101C106.545 345.114 106.888 345.228 107.18 345.43C107.5 345.64 107.84 345.83 108.18 346.01C108.482 346.166 108.736 346.403 108.912 346.694C109.089 346.985 109.181 347.32 109.18 347.66V350.06H117V347.66C116.999 347.32 117.091 346.985 117.268 346.694C117.444 346.403 117.698 346.166 118 346.01C118.34 345.83 118.68 345.64 119 345.43C119.286 345.238 119.62 345.129 119.965 345.117C120.31 345.105 120.651 345.189 120.95 345.36L123.03 346.56L126.94 339.78L124.86 338.58C124.566 338.404 124.327 338.15 124.168 337.847C124.009 337.543 123.937 337.202 123.96 336.86C123.96 336.67 123.96 336.47 123.96 336.28C123.96 336.09 123.96 335.89 123.96 335.7C123.937 335.357 124.01 335.014 124.171 334.711C124.331 334.407 124.573 334.154 124.87 333.98L127 332.79ZM119.52 336.29C119.52 337.558 119.144 338.798 118.439 339.852C117.734 340.907 116.732 341.728 115.561 342.213C114.389 342.698 113.099 342.824 111.856 342.576C110.612 342.328 109.47 341.716 108.574 340.819C107.678 339.922 107.068 338.778 106.822 337.534C106.576 336.29 106.704 335.001 107.191 333.83C107.677 332.659 108.501 331.659 109.556 330.955C110.611 330.252 111.852 329.878 113.12 329.88C113.96 329.881 114.791 330.048 115.567 330.371C116.342 330.694 117.046 331.167 117.639 331.762C118.232 332.358 118.701 333.064 119.02 333.841C119.34 334.618 119.503 335.45 119.5 336.29H119.52Z" fill="#EBEBEB"/>
<path d="M575.63 292.18L574.64 298.22L573.59 304.71L563.93 363.9H548.15L557.8 304.71L558.86 298.22L559.84 292.18H575.63Z" fill="#EBEBEB"/>
<path d="M573.34 292.18C572.51 298.18 571.61 304.18 570.71 310.18L567.93 328.12L565 346L563.5 355L561.94 363.94L563.22 354.94L564.57 345.94L567.35 328L570.27 310.08C571.26 304.11 572.27 298.14 573.34 292.18Z" fill="#C7C7C7"/>
<path d="M574.64 298.22L573.59 304.71H557.8L558.86 298.22H574.64Z" fill="#C7C7C7"/>
<path d="M653.56 292.18L654.54 298.22L655.6 304.71L665.25 363.9H681.04L671.39 304.71L670.33 298.22L669.35 292.18H653.56Z" fill="#EBEBEB"/>
<path d="M655.9 292.18C656.73 298.18 657.62 304.18 658.53 310.18L661.31 328.12L664.23 346L665.73 354.95L667.3 363.89L666.02 354.89L664.67 345.89L661.89 328L659 310.07C658 304.11 657 298.14 655.9 292.18Z" fill="#C7C7C7"/>
<path d="M654.54 298.22H670.33L671.39 304.71H655.6L654.54 298.22Z" fill="#C7C7C7"/>
<path d="M575.05 275.53H562.53L564.09 263.86H573.5L575.05 275.53Z" fill="#C7C7C7"/>
<path d="M580.46 255.52C580.462 257.829 579.779 260.086 578.498 262.006C577.217 263.927 575.395 265.424 573.263 266.309C571.131 267.194 568.784 267.426 566.519 266.977C564.255 266.528 562.175 265.417 560.541 263.785C558.908 262.154 557.796 260.074 557.345 257.81C556.894 255.546 557.124 253.199 558.007 251.066C558.89 248.933 560.386 247.11 562.305 245.827C564.225 244.545 566.481 243.86 568.79 243.86C570.322 243.859 571.839 244.159 573.255 244.745C574.671 245.33 575.957 246.189 577.041 247.272C578.125 248.354 578.985 249.64 579.571 251.056C580.158 252.471 580.46 253.988 580.46 255.52Z" fill="#DBDBDB"/>
<path d="M577.66 255.52C577.662 257.275 577.143 258.991 576.17 260.451C575.196 261.911 573.812 263.049 572.191 263.722C570.571 264.395 568.787 264.572 567.066 264.231C565.344 263.89 563.763 263.046 562.521 261.806C561.28 260.565 560.434 258.985 560.091 257.264C559.748 255.543 559.923 253.759 560.594 252.138C561.265 250.517 562.402 249.131 563.861 248.156C565.32 247.18 567.035 246.66 568.79 246.66C571.141 246.66 573.395 247.593 575.058 249.254C576.722 250.916 577.657 253.169 577.66 255.52Z" fill="white"/>
<path d="M576.21 255C576.129 253.942 575.83 252.912 575.331 251.976C574.831 251.039 574.143 250.217 573.31 249.56C572.469 248.905 571.503 248.428 570.471 248.16C569.439 247.892 568.364 247.837 567.31 248C566.269 248.162 565.273 248.543 564.389 249.117C563.505 249.691 562.752 250.445 562.18 251.33C561.578 252.269 561.182 253.325 561.02 254.429C560.858 255.532 560.933 256.658 561.24 257.73C561.778 259.588 563.024 261.161 564.71 262.11C566.354 263.042 568.283 263.338 570.13 262.94C571.924 262.563 573.533 261.582 574.69 260.16C575.828 258.757 576.484 257.025 576.56 255.22C576.56 255.13 576.56 255.06 576.49 255.06C576.42 255.06 576.41 255.12 576.41 255.21C576.371 255.939 576.229 256.66 575.99 257.35C575.742 258.031 575.406 258.676 574.99 259.27C574.574 259.861 574.087 260.398 573.54 260.87C572.975 261.336 572.357 261.736 571.7 262.06C570.765 262.5 569.748 262.74 568.715 262.764C567.682 262.788 566.655 262.596 565.7 262.2C564.73 261.791 563.861 261.178 563.151 260.401C562.442 259.624 561.909 258.703 561.59 257.7C561.265 256.67 561.167 255.582 561.301 254.51C561.436 253.438 561.8 252.408 562.37 251.49C562.917 250.615 563.647 249.868 564.511 249.302C565.374 248.736 566.349 248.363 567.37 248.21C569.101 247.895 570.887 248.203 572.412 249.08C573.937 249.957 575.102 251.346 575.7 253C575.938 253.666 576.095 254.357 576.17 255.06L576.21 255Z" fill="#EBEBEB"/>
<path d="M575.17 255C575.09 254.094 574.825 253.214 574.391 252.414C573.958 251.614 573.365 250.912 572.65 250.35C571.933 249.799 571.114 249.396 570.24 249.164C569.367 248.932 568.455 248.876 567.56 249C566.663 249.133 565.803 249.455 565.038 249.942C564.273 250.43 563.62 251.073 563.12 251.83C562.592 252.639 562.242 253.552 562.093 254.507C561.945 255.463 562.002 256.438 562.26 257.37C562.481 258.176 562.859 258.929 563.375 259.587C563.89 260.244 564.531 260.793 565.26 261.2C566.694 262.014 568.38 262.267 569.99 261.91C571.542 261.568 572.932 260.707 573.93 259.47C574.917 258.25 575.488 256.747 575.56 255.18C575.56 255.11 575.56 255.05 575.48 255.05C575.4 255.05 575.4 255.1 575.4 255.18C575.316 256.431 574.902 257.637 574.199 258.676C573.496 259.714 572.53 260.547 571.4 261.09C570.587 261.485 569.699 261.702 568.796 261.728C567.893 261.754 566.994 261.588 566.16 261.24C565.319 260.889 564.565 260.356 563.953 259.68C563.341 259.004 562.886 258.202 562.62 257.33C562.343 256.44 562.264 255.501 562.386 254.577C562.509 253.653 562.831 252.767 563.33 251.98C563.804 251.235 564.434 250.602 565.177 250.124C565.919 249.646 566.756 249.334 567.63 249.21C569.104 248.953 570.621 249.217 571.921 249.959C573.22 250.7 574.221 251.871 574.75 253.27C574.957 253.839 575.097 254.429 575.17 255.03C575.172 255.02 575.172 255.01 575.17 255Z" fill="#EBEBEB"/>
<path d="M574.13 255C574.052 254.248 573.823 253.519 573.457 252.858C573.091 252.196 572.596 251.615 572 251.15C570.795 250.229 569.275 249.819 567.77 250.01C567.018 250.111 566.296 250.369 565.651 250.769C565.007 251.169 564.454 251.701 564.03 252.33C563.572 253.008 563.264 253.777 563.128 254.584C562.991 255.392 563.03 256.219 563.24 257.01C563.422 257.701 563.741 258.347 564.179 258.911C564.618 259.475 565.165 259.944 565.79 260.29C567.005 260.972 568.429 261.182 569.79 260.88C571.106 260.579 572.281 259.838 573.12 258.78C573.942 257.741 574.42 256.473 574.49 255.15C574.49 255.09 574.49 255.04 574.42 255.04C574.35 255.04 574.34 255.04 574.33 255.15C574.256 256.211 573.901 257.233 573.302 258.111C572.702 258.99 571.88 259.694 570.92 260.15C570.237 260.491 569.49 260.682 568.727 260.71C567.965 260.738 567.205 260.601 566.5 260.31C565.786 260.014 565.147 259.564 564.629 258.991C564.11 258.419 563.724 257.739 563.5 257C563.276 256.248 563.218 255.457 563.328 254.68C563.439 253.903 563.716 253.16 564.14 252.5C564.544 251.887 565.075 251.368 565.699 250.98C566.322 250.591 567.021 250.342 567.75 250.25C568.717 250.133 569.697 250.25 570.61 250.59C571.551 250.926 572.378 251.518 573 252.3C573.296 252.698 573.541 253.131 573.73 253.59C573.906 254.062 574.03 254.551 574.1 255.05C574.109 255.045 574.116 255.038 574.121 255.029C574.127 255.02 574.13 255.01 574.13 255Z" fill="#EBEBEB"/>
<path d="M573.09 255C572.933 253.792 572.304 252.695 571.34 251.95C570.38 251.23 569.184 250.899 567.99 251.02C567.381 251.092 566.794 251.292 566.267 251.605C565.739 251.919 565.284 252.339 564.93 252.84C564.546 253.391 564.284 254.018 564.161 254.678C564.039 255.339 564.059 256.018 564.22 256.67C564.361 257.245 564.62 257.784 564.979 258.254C565.339 258.723 565.792 259.114 566.31 259.4C567.33 259.967 568.526 260.128 569.66 259.85C570.738 259.59 571.696 258.973 572.38 258.1C573.048 257.237 573.435 256.19 573.49 255.1C573.491 255.089 573.491 255.079 573.488 255.069C573.485 255.058 573.48 255.049 573.474 255.04C573.467 255.032 573.459 255.025 573.45 255.02C573.441 255.015 573.43 255.011 573.42 255.01C573.397 255.012 573.375 255.022 573.359 255.039C573.342 255.055 573.332 255.077 573.33 255.1C573.247 255.947 572.949 256.76 572.464 257.46C571.979 258.16 571.324 258.724 570.56 259.1C570.008 259.386 569.4 259.55 568.778 259.579C568.157 259.609 567.537 259.503 566.96 259.27C566.375 259.03 565.853 258.661 565.432 258.19C565.011 257.719 564.702 257.158 564.53 256.55C564.356 255.94 564.317 255.299 564.416 254.672C564.514 254.046 564.748 253.448 565.1 252.92C565.431 252.434 565.863 252.026 566.368 251.724C566.872 251.422 567.436 251.233 568.02 251.17C568.782 251.102 569.55 251.201 570.27 251.46C570.996 251.728 571.638 252.183 572.13 252.78C572.365 253.089 572.563 253.425 572.72 253.78C572.873 254.153 572.984 254.542 573.05 254.94C573.05 254.94 573.1 255.05 573.09 255Z" fill="#EBEBEB"/>
<path d="M666.38 275.53H653.86L655.42 263.86H664.83L666.38 275.53Z" fill="#C7C7C7"/>
<path d="M671.79 255.52C671.792 257.829 671.109 260.086 669.828 262.006C668.547 263.927 666.725 265.424 664.593 266.309C662.461 267.194 660.114 267.426 657.849 266.977C655.585 266.528 653.505 265.417 651.872 263.785C650.238 262.154 649.126 260.074 648.675 257.81C648.224 255.546 648.454 253.199 649.337 251.066C650.22 248.933 651.716 247.11 653.635 245.827C655.555 244.545 657.811 243.86 660.12 243.86C663.213 243.86 666.18 245.088 668.368 247.275C670.557 249.461 671.787 252.427 671.79 255.52Z" fill="#DBDBDB"/>
<path d="M669 255.52C669.002 257.275 668.483 258.991 667.51 260.451C666.537 261.911 665.152 263.049 663.531 263.722C661.911 264.395 660.127 264.572 658.406 264.231C656.684 263.89 655.103 263.046 653.862 261.806C652.62 260.565 651.774 258.985 651.431 257.264C651.088 255.543 651.263 253.759 651.934 252.138C652.605 250.517 653.742 249.131 655.201 248.156C656.66 247.18 658.375 246.66 660.13 246.66C662.481 246.66 664.735 247.593 666.399 249.254C668.062 250.916 668.997 253.169 669 255.52Z" fill="white"/>
<path d="M667.53 255C667.453 253.942 667.157 252.912 666.659 251.975C666.162 251.038 665.474 250.216 664.64 249.56C663.799 248.905 662.833 248.428 661.801 248.16C660.769 247.892 659.694 247.837 658.64 248C657.599 248.162 656.603 248.543 655.719 249.117C654.835 249.691 654.082 250.445 653.51 251.33C652.908 252.269 652.512 253.325 652.35 254.429C652.188 255.532 652.263 256.658 652.57 257.73C653.108 259.588 654.354 261.161 656.04 262.11C657.684 263.042 659.613 263.338 661.46 262.94C663.254 262.563 664.863 261.582 666.02 260.16C667.158 258.757 667.814 257.025 667.89 255.22C667.89 255.13 667.89 255.06 667.82 255.06C667.75 255.06 667.74 255.12 667.74 255.21C667.701 255.939 667.559 256.66 667.32 257.35C667.068 258.029 666.732 258.674 666.32 259.27C665.904 259.861 665.417 260.398 664.87 260.87C664.305 261.336 663.687 261.736 663.03 262.06C662.088 262.507 661.062 262.751 660.02 262.775C658.977 262.799 657.942 262.603 656.98 262.2C656.01 261.791 655.141 261.178 654.431 260.401C653.722 259.624 653.189 258.703 652.87 257.7C652.545 256.67 652.447 255.582 652.581 254.51C652.716 253.438 653.08 252.408 653.65 251.49C654.196 250.614 654.926 249.867 655.79 249.3C656.653 248.734 657.629 248.362 658.65 248.21C660.384 247.89 662.175 248.195 663.704 249.073C665.233 249.95 666.401 251.342 667 253C667.238 253.666 667.395 254.357 667.47 255.06C667.486 255.06 667.501 255.054 667.512 255.042C667.524 255.031 667.53 255.016 667.53 255Z" fill="#EBEBEB"/>
<path d="M666.5 255C666.42 254.094 666.155 253.214 665.721 252.414C665.288 251.614 664.695 250.912 663.98 250.35C663.263 249.799 662.444 249.396 661.57 249.164C660.697 248.932 659.785 248.876 658.89 249C657.993 249.133 657.133 249.455 656.368 249.942C655.604 250.43 654.95 251.073 654.45 251.83C653.922 252.639 653.572 253.552 653.423 254.507C653.275 255.463 653.332 256.438 653.59 257.37C653.811 258.176 654.19 258.929 654.705 259.587C655.22 260.244 655.861 260.793 656.59 261.2C658.024 262.014 659.71 262.267 661.32 261.91C662.872 261.568 664.262 260.707 665.26 259.47C666.248 258.252 666.816 256.747 666.88 255.18C666.88 255.11 666.88 255.05 666.81 255.05C666.74 255.05 666.73 255.1 666.73 255.18C666.646 256.431 666.232 257.637 665.529 258.676C664.826 259.714 663.86 260.547 662.73 261.09C661.917 261.485 661.029 261.702 660.126 261.728C659.223 261.754 658.324 261.588 657.49 261.24C656.649 260.889 655.895 260.356 655.283 259.68C654.672 259.004 654.216 258.202 653.95 257.33C653.674 256.44 653.594 255.502 653.715 254.578C653.835 253.655 654.155 252.769 654.65 251.98C655.126 251.237 655.757 250.605 656.499 250.128C657.241 249.65 658.077 249.337 658.95 249.21C660.425 248.95 661.945 249.214 663.247 249.955C664.548 250.696 665.55 251.869 666.08 253.27C666.287 253.839 666.428 254.429 666.5 255.03C666.502 255.02 666.502 255.01 666.5 255Z" fill="#EBEBEB"/>
<path d="M665.46 255C665.382 254.248 665.153 253.519 664.787 252.858C664.421 252.196 663.926 251.615 663.33 251.15C662.126 250.225 660.606 249.812 659.1 250C658.348 250.101 657.626 250.359 656.981 250.759C656.337 251.159 655.784 251.691 655.36 252.32C654.902 252.998 654.594 253.767 654.458 254.574C654.321 255.382 654.36 256.209 654.57 257C654.752 257.69 655.071 258.337 655.509 258.901C655.948 259.464 656.496 259.934 657.12 260.28C658.335 260.962 659.759 261.172 661.12 260.87C662.436 260.569 663.611 259.828 664.45 258.77C665.272 257.731 665.751 256.463 665.82 255.14C665.82 255.08 665.82 255.03 665.75 255.03C665.68 255.03 665.67 255.03 665.66 255.14C665.58 256.199 665.222 257.219 664.624 258.096C664.025 258.974 663.207 259.679 662.25 260.14C661.568 260.481 660.82 260.672 660.057 260.7C659.295 260.728 658.535 260.591 657.83 260.3C657.116 260.005 656.476 259.555 655.957 258.983C655.438 258.41 655.053 257.73 654.83 256.99C654.607 256.238 654.548 255.447 654.658 254.67C654.769 253.893 655.046 253.15 655.47 252.49C655.874 251.877 656.406 251.358 657.029 250.97C657.652 250.581 658.352 250.332 659.08 250.24C660.047 250.123 661.027 250.24 661.94 250.58C662.858 250.928 663.663 251.519 664.27 252.29C664.566 252.688 664.811 253.121 665 253.58C665.176 254.052 665.3 254.541 665.37 255.04C665.378 255.045 665.388 255.048 665.397 255.049C665.407 255.049 665.417 255.047 665.425 255.043C665.434 255.04 665.442 255.034 665.448 255.026C665.454 255.018 665.458 255.009 665.46 255Z" fill="#EBEBEB"/>
<path d="M664.42 255C664.264 253.792 663.634 252.695 662.67 251.95C661.71 251.23 660.514 250.899 659.32 251.02C658.711 251.092 658.124 251.292 657.597 251.605C657.07 251.919 656.614 252.339 656.26 252.84C655.876 253.391 655.614 254.018 655.491 254.678C655.369 255.339 655.389 256.018 655.55 256.67C655.691 257.245 655.95 257.784 656.31 258.254C656.669 258.723 657.122 259.114 657.64 259.4C658.66 259.968 659.857 260.129 660.99 259.85C662.068 259.59 663.026 258.973 663.71 258.1C664.374 257.235 664.761 256.189 664.82 255.1C664.821 255.089 664.821 255.079 664.818 255.069C664.815 255.058 664.81 255.049 664.804 255.04C664.797 255.032 664.789 255.025 664.78 255.02C664.771 255.015 664.761 255.011 664.75 255.01C664.727 255.012 664.705 255.022 664.689 255.039C664.672 255.055 664.662 255.077 664.66 255.1C664.577 255.947 664.279 256.76 663.794 257.46C663.31 258.16 662.654 258.724 661.89 259.1C661.338 259.386 660.73 259.55 660.109 259.579C659.487 259.609 658.867 259.503 658.29 259.27C657.705 259.03 657.183 258.661 656.762 258.19C656.341 257.719 656.032 257.158 655.86 256.55C655.686 255.94 655.647 255.299 655.746 254.672C655.844 254.046 656.078 253.448 656.43 252.92C656.761 252.434 657.194 252.026 657.698 251.724C658.202 251.422 658.766 251.233 659.35 251.17C660.112 251.102 660.88 251.201 661.6 251.46C662.324 251.725 662.964 252.181 663.45 252.78C663.692 253.086 663.894 253.422 664.05 253.78C664.203 254.153 664.314 254.542 664.38 254.94C664.38 254.94 664.42 255.05 664.42 255Z" fill="#EBEBEB"/>
<path d="M693.25 269.58H535.95V299.67H693.25V269.58Z" fill="#DBDBDB"/>
<path d="M568.27 269.58L556.86 299.67H536.54L547.96 269.58H568.27Z" fill="#EBEBEB"/>
<path d="M609.91 269.58L598.5 299.67H578.18L589.59 269.58H609.91Z" fill="#EBEBEB"/>
<path d="M651.55 269.58L640.13 299.67H619.82L631.24 269.58H651.55Z" fill="#EBEBEB"/>
<path d="M693.19 269.58L681.77 299.67H661.45L672.87 269.58H693.19Z" fill="#EBEBEB"/>
<path d="M690.06 327.48H539.13V346.52H690.06V327.48Z" fill="#DBDBDB"/>
<path d="M570.15 327.48L559.2 346.52H539.71L550.66 327.48H570.15Z" fill="#EBEBEB"/>
<path d="M610.1 327.48L599.15 346.52H579.65L590.61 327.48H610.1Z" fill="#EBEBEB"/>
<path d="M650.05 327.48L639.1 346.52H619.61L630.56 327.48H650.05Z" fill="#EBEBEB"/>
<path d="M690.01 327.48L679.05 346.52H659.55L670.51 327.48H690.01Z" fill="#EBEBEB"/>
<path d="M492.62 457.63C593.224 457.63 674.78 452.123 674.78 445.33C674.78 438.537 593.224 433.03 492.62 433.03C392.016 433.03 310.46 438.537 310.46 445.33C310.46 452.123 392.016 457.63 492.62 457.63Z" fill="#EBEBEB"/>
<path d="M56.76 363.88L136.32 363.64L215.88 363.55L375 363.39L534.12 363.55L613.68 363.64L693.24 363.88L613.68 364.13L534.12 364.22L375 364.38L215.88 364.22L136.32 364.13L56.76 363.88Z" fill="#263238"/>
<path d="M567.03 109.9H182.97V366.81H567.03V109.9Z" fill="#DBDBDB"/>
<path d="M564.24 113.04H185.76V363.68H564.24V113.04Z" fill="#263238"/>
<path d="M617.05 386.07H132.95V403.7H617.05V386.07Z" fill="#C7C7C7"/>
<path d="M132.95 386.07L182.97 366.81H567.03L617.05 386.07H132.95Z" fill="#DBDBDB"/>
<path d="M187.44 379.24L219.72 366.81H530.28L562.56 379.24H187.44Z" fill="#263238"/>
<path d="M543.14 131.99H206.87V344.72H543.14V131.99Z" fill="white"/>
<path d="M543.14 131.99H206.87V140.18H543.14V131.99Z" fill="#455A64"/>
<path d="M213.37 136.08C213.37 136.476 213.253 136.862 213.033 137.191C212.813 137.52 212.501 137.776 212.135 137.928C211.77 138.079 211.368 138.119 210.98 138.042C210.592 137.964 210.235 137.774 209.956 137.494C209.676 137.215 209.486 136.858 209.408 136.47C209.331 136.082 209.371 135.68 209.522 135.315C209.674 134.949 209.93 134.637 210.259 134.417C210.588 134.197 210.974 134.08 211.37 134.08C211.9 134.08 212.409 134.291 212.784 134.666C213.159 135.041 213.37 135.55 213.37 136.08Z" fill="#024A62"/>
<path d="M221.66 136.08C221.66 136.476 221.543 136.862 221.323 137.191C221.103 137.52 220.791 137.776 220.425 137.928C220.06 138.079 219.658 138.119 219.27 138.042C218.882 137.964 218.525 137.774 218.246 137.494C217.966 137.215 217.776 136.858 217.698 136.47C217.621 136.082 217.661 135.68 217.812 135.315C217.964 134.949 218.22 134.637 218.549 134.417C218.878 134.197 219.264 134.08 219.66 134.08C220.19 134.08 220.699 134.291 221.074 134.666C221.449 135.041 221.66 135.55 221.66 136.08Z" fill="#EBEBEB"/>
<path d="M230 136.08C230 136.476 229.883 136.862 229.663 137.191C229.443 137.52 229.131 137.776 228.765 137.928C228.4 138.079 227.998 138.119 227.61 138.042C227.222 137.964 226.865 137.774 226.586 137.494C226.306 137.215 226.116 136.858 226.038 136.47C225.961 136.082 226.001 135.68 226.152 135.315C226.304 134.949 226.56 134.637 226.889 134.417C227.218 134.197 227.604 134.08 228 134.08C228.53 134.08 229.039 134.291 229.414 134.666C229.789 135.041 230 135.55 230 136.08Z" fill="white"/>
<path d="M367.67 278.94H428.94V231.93H367.67V278.94Z" fill="#EBEBEB"/>
<path d="M373.76 242.22C373.526 243.392 373.675 244.609 374.185 245.69C374.695 246.771 375.54 247.659 376.594 248.223C377.648 248.787 378.855 248.997 380.038 248.822C381.22 248.647 382.315 248.096 383.16 247.251C384.006 246.405 384.557 245.31 384.732 244.128C384.907 242.945 384.697 241.738 384.133 240.684C383.569 239.63 382.681 238.785 381.6 238.275C380.519 237.765 379.302 237.616 378.13 237.85C377.051 238.066 376.061 238.596 375.283 239.373C374.506 240.151 373.976 241.142 373.76 242.22Z" fill="white"/>
<path d="M387.88 268.82H428.93L408.4 243.52L387.88 268.82Z" fill="#C7C7C7"/>
<path d="M367.66 268.84H404.07L385.87 252.36L367.66 268.84Z" fill="#DBDBDB"/>
<path d="M428.93 268.82H367.66V278.95H428.93V268.82Z" fill="#DBDBDB"/>
<path d="M526.52 155.93H442.36V166.47H526.52V155.93Z" fill="#024A62"/>
<path d="M526.3 166.56H442.59V331.89H526.3V166.56Z" fill="white"/>
<path d="M526.53 332.16H442.36V166.29H526.53V332.16ZM442.82 331.62H526.06V166.83H442.82V331.62Z" fill="#DBDBDB"/>
<path d="M442.81 331.99L442.37 331.79L526.08 166.46L526.51 166.66L442.81 331.99Z" fill="#DBDBDB"/>
<path d="M526.08 331.99L442.37 166.66L442.81 166.46L526.51 331.79L526.08 331.99Z" fill="#DBDBDB"/>
<path d="M323.95 156.11H223.65V222.52H323.95V156.11Z" fill="white"/>
<path d="M223.49 222.71V222.54V155.96H223.66H324.12V222.71H324H223.49ZM223.81 156.29V222.37H323.81V156.3L223.81 156.29Z" fill="#DBDBDB"/>
<path d="M223.81 156.29C232.24 161.64 240.63 167.07 249 172.51L274.05 188.93L299 205.53L311.43 213.89L323.8 222.34L311.17 214.28L298.61 206.13L273.55 189.71L248.61 173.1C240.32 167.54 232 162 223.81 156.29Z" fill="#DBDBDB"/>
<path d="M323.79 156.29C315.56 161.96 307.28 167.54 298.99 173.1L274.05 189.71L249 206.13L236.43 214.28L223.81 222.34L236.18 213.89L248.6 205.53L273.54 188.93L298.6 172.51C307 167.07 315.35 161.64 323.79 156.29Z" fill="#DBDBDB"/>
<path d="M223.81 285.33V332.03H428.46V285.33H223.81Z" fill="white"/>
<path d="M428.8 285.2V332.2H223.47V285.2H428.8ZM428.12 331.9V285.46H224.12V331.9H428.12Z" fill="#DBDBDB"/>
<path d="M428.59 331.91L428.34 332.15L223.68 285.45L223.93 285.21L428.59 331.91Z" fill="#DBDBDB"/>
<path d="M428.59 285.45L223.93 332.15L223.68 331.91L428.34 285.21L428.59 285.45Z" fill="#DBDBDB"/>
<path d="M141.439 115.396L120.074 138.052L122.279 140.131L143.643 117.475L141.439 115.396Z" fill="#263238"/>
<path d="M143.06 138.53H121.18V141.56H143.06V138.53Z" fill="#455A64"/>
<path d="M143.06 114.92H121.18V117.95H143.06V114.92Z" fill="#455A64"/>
<path d="M122.28 115.388L120.075 117.467L141.436 140.126L143.641 138.047L122.28 115.388Z" fill="#455A64"/>
<path d="M141.436 139.005L120.072 161.66L122.276 163.739L143.64 141.083L141.436 139.005Z" fill="#263238"/>
<path d="M143.06 162.14H121.18V165.17H143.06V162.14Z" fill="#455A64"/>
<path d="M143.06 138.53H121.18V141.56H143.06V138.53Z" fill="#455A64"/>
<path d="M122.275 138.998L120.071 141.076L141.431 163.736L143.636 161.657L122.275 138.998Z" fill="#455A64"/>
<path d="M141.433 162.613L120.069 185.268L122.273 187.347L143.637 164.692L141.433 162.613Z" fill="#263238"/>
<path d="M143.06 185.75H121.18V188.78H143.06V185.75Z" fill="#455A64"/>
<path d="M143.06 162.14H121.18V165.17H143.06V162.14Z" fill="#455A64"/>
<path d="M122.28 162.608L120.076 164.686L141.436 187.345L143.641 185.267L122.28 162.608Z" fill="#455A64"/>
<path d="M141.44 186.221L120.076 208.876L122.28 210.955L143.644 188.3L141.44 186.221Z" fill="#263238"/>
<path d="M143.06 209.36H121.18V212.39H143.06V209.36Z" fill="#455A64"/>
<path d="M143.06 185.75H121.18V188.78H143.06V185.75Z" fill="#455A64"/>
<path d="M122.286 186.218L120.081 188.296L141.441 210.955L143.646 208.877L122.286 186.218Z" fill="#455A64"/>
<path d="M141.437 209.839L120.073 232.494L122.277 234.573L143.641 211.918L141.437 209.839Z" fill="#263238"/>
<path d="M143.06 232.97H121.18V236H143.06V232.97Z" fill="#455A64"/>
<path d="M143.06 209.36H121.18V212.39H143.06V209.36Z" fill="#455A64"/>
<path d="M122.284 209.82L120.079 211.899L141.44 234.558L143.644 232.48L122.284 209.82Z" fill="#455A64"/>
<path d="M141.444 233.447L120.08 256.103L122.284 258.181L143.649 235.526L141.444 233.447Z" fill="#263238"/>
<path d="M143.06 256.57H121.18V259.6H143.06V256.57Z" fill="#455A64"/>
<path d="M143.06 232.97H121.18V236H143.06V232.97Z" fill="#455A64"/>
<path d="M122.279 233.43L120.074 235.509L141.435 258.168L143.639 256.089L122.279 233.43Z" fill="#455A64"/>
<path d="M141.434 257.049L120.07 279.704L122.274 281.783L143.638 259.127L141.434 257.049Z" fill="#263238"/>
<path d="M143.06 280.18H121.18V283.21H143.06V280.18Z" fill="#455A64"/>
<path d="M143.06 256.57H121.18V259.6H143.06V256.57Z" fill="#455A64"/>
<path d="M122.284 257.03L120.08 259.109L141.44 281.768L143.645 279.689L122.284 257.03Z" fill="#455A64"/>
<path d="M141.441 280.647L120.077 303.302L122.281 305.381L143.645 282.725L141.441 280.647Z" fill="#263238"/>
<path d="M143.06 303.79H121.18V306.82H143.06V303.79Z" fill="#455A64"/>
<path d="M143.06 280.18H121.18V283.21H143.06V280.18Z" fill="#455A64"/>
<path d="M122.29 280.64L120.085 282.719L141.445 305.378L143.65 303.299L122.29 280.64Z" fill="#455A64"/>
<path d="M141.448 304.245L120.084 326.9L122.288 328.979L143.652 306.324L141.448 304.245Z" fill="#263238"/>
<path d="M143.06 327.4H121.18V330.43H143.06V327.4Z" fill="#455A64"/>
<path d="M143.06 303.79H121.18V306.82H143.06V303.79Z" fill="#455A64"/>
<path d="M122.285 304.25L120.08 306.328L141.44 328.987L143.645 326.909L122.285 304.25Z" fill="#455A64"/>
<path d="M141.439 327.872L120.082 350.535L122.287 352.613L143.644 329.95L141.439 327.872Z" fill="#263238"/>
<path d="M143.06 351.01H121.18V354.04H143.06V351.01Z" fill="#455A64"/>
<path d="M143.06 327.4H121.18V330.43H143.06V327.4Z" fill="#455A64"/>
<path d="M122.29 327.87L120.085 329.948L141.445 352.607L143.65 350.529L122.29 327.87Z" fill="#455A64"/>
<path d="M141.431 351.474L120.075 374.137L122.28 376.215L143.637 353.552L141.431 351.474Z" fill="#263238"/>
<path d="M143.06 374.62H121.18V377.65H143.06V374.62Z" fill="#455A64"/>
<path d="M143.06 351.01H121.18V354.04H143.06V351.01Z" fill="#455A64"/>
<path d="M122.288 351.462L120.083 353.541L141.444 376.2L143.649 374.122L122.288 351.462Z" fill="#455A64"/>
<path d="M147.44 388.05V374.3H115.88V388.05H147.44Z" fill="#455A64"/>
<path d="M123.78 375.16L123.78 116.16H115.87L115.87 375.16H123.78Z" fill="#455A64"/>
<path d="M147.44 375.16L147.44 116.16H139.53L139.53 375.16H147.44Z" fill="#455A64"/>
<path d="M355.33 114.31L331.69 91.01L132.15 53.83L71.51 91.19L69.92 88.6L131.56 50.63L333.15 88.2L357.46 112.14L355.33 114.31Z" fill="#455A64"/>
<path d="M156.21 94.28L131.91 60.5L108.65 94.23L103.65 90.78L131.8 49.96L161.14 90.73L156.21 94.28Z" fill="#263238"/>
<path d="M309.439 93.7193L307.361 95.9241L330.02 117.284L332.099 115.08L309.439 93.7193Z" fill="#263238"/>
<path d="M333.51 94.28H330.48V116.16H333.51V94.28Z" fill="#455A64"/>
<path d="M309.9 94.28H306.87V116.16H309.9V94.28Z" fill="#455A64"/>
<path d="M330.016 93.7162L307.357 115.077L309.435 117.281L332.094 95.921L330.016 93.7162Z" fill="#455A64"/>
<path d="M285.824 93.7192L283.746 95.924L306.405 117.284L308.484 115.08L285.824 93.7192Z" fill="#263238"/>
<path d="M309.9 94.28H306.87V116.16H309.9V94.28Z" fill="#455A64"/>
<path d="M286.29 94.28H283.26V116.16H286.29V94.28Z" fill="#455A64"/>
<path d="M306.382 93.6693L283.726 115.034L285.805 117.238L308.46 95.8738L306.382 93.6693Z" fill="#455A64"/>
<path d="M262.209 93.7191L260.131 95.9239L282.79 117.284L284.868 115.079L262.209 93.7191Z" fill="#263238"/>
<path d="M286.29 94.28H283.26V116.16H286.29V94.28Z" fill="#455A64"/>
<path d="M262.68 94.28H259.65V116.16H262.68V94.28Z" fill="#455A64"/>
<path d="M282.775 93.6675L260.119 115.032L262.198 117.236L284.853 95.8719L282.775 93.6675Z" fill="#455A64"/>
<path d="M238.604 93.719L236.526 95.9238L259.185 117.284L261.263 115.079L238.604 93.719Z" fill="#263238"/>
<path d="M262.68 94.28H259.65V116.16H262.68V94.28Z" fill="#455A64"/>
<path d="M239.07 94.28H236.04V116.16H239.07V94.28Z" fill="#455A64"/>
<path d="M259.168 93.6756L236.512 115.04L238.591 117.244L261.246 95.8801L259.168 93.6756Z" fill="#455A64"/>
<path d="M214.996 93.7116L212.917 95.9164L235.576 117.277L237.655 115.072L214.996 93.7116Z" fill="#263238"/>
<path d="M239.07 94.28H236.04V116.16H239.07V94.28Z" fill="#455A64"/>
<path d="M215.47 94.28H212.44V116.16H215.47V94.28Z" fill="#455A64"/>
<path d="M235.561 93.6838L212.905 115.048L214.984 117.253L237.639 95.8882L235.561 93.6838Z" fill="#455A64"/>
<path d="M191.391 93.7115L189.312 95.9163L211.971 117.277L214.05 115.072L191.391 93.7115Z" fill="#263238"/>
<path d="M215.47 94.28H212.44V116.16H215.47V94.28Z" fill="#455A64"/>
<path d="M191.86 94.28H188.83V116.16H191.86V94.28Z" fill="#455A64"/>
<path d="M211.953 93.682L189.298 115.046L191.377 117.251L214.032 95.8864L211.953 93.682Z" fill="#455A64"/>
<path d="M167.775 93.7114L165.697 95.9162L188.356 117.277L190.435 115.072L167.775 93.7114Z" fill="#263238"/>
<path d="M191.86 94.28H188.83V116.16H191.86V94.28Z" fill="#455A64"/>
<path d="M168.25 94.28H165.22V116.16H168.25V94.28Z" fill="#455A64"/>
<path d="M188.354 93.6833L165.698 115.048L167.777 117.252L190.432 95.8877L188.354 93.6833Z" fill="#455A64"/>
<path d="M144.17 93.7113L142.092 95.9161L164.751 117.276L166.829 115.072L144.17 93.7113Z" fill="#263238"/>
<path d="M168.25 94.28H165.22V116.16H168.25V94.28Z" fill="#455A64"/>
<path d="M144.64 94.28H141.61V116.16H144.64V94.28Z" fill="#455A64"/>
<path d="M164.747 93.6815L142.091 115.046L144.17 117.25L166.825 95.8859L164.747 93.6815Z" fill="#455A64"/>
<path d="M120.555 93.7112L118.477 95.916L141.136 117.276L143.214 115.072L120.555 93.7112Z" fill="#263238"/>
<path d="M144.64 94.28H141.61V116.16H144.64V94.28Z" fill="#455A64"/>
<path d="M121.03 94.28H118V116.16H121.03V94.28Z" fill="#455A64"/>
<path d="M141.13 93.6797L118.474 115.044L120.553 117.248L143.208 95.8841L141.13 93.6797Z" fill="#455A64"/>
<path d="M96.9499 93.711L94.8715 95.9158L117.531 117.276L119.609 115.071L96.9499 93.711Z" fill="#263238"/>
<path d="M121.03 94.28H118V116.16H121.03V94.28Z" fill="#455A64"/>
<path d="M97.42 94.28H94.39V116.16H97.42V94.28Z" fill="#455A64"/>
<path d="M117.522 93.6778L94.8671 115.042L96.9459 117.247L119.601 95.8822L117.522 93.6778Z" fill="#455A64"/>
<path d="M73.891 93.8757L71.8003 96.0876L94.5325 117.574L96.6232 115.362L73.891 93.8757Z" fill="#263238"/>
<path d="M97.42 94.28H94.39V116.16H97.42V94.28Z" fill="#455A64"/>
<path d="M73.81 94.28H70.78V116.16H73.81V94.28Z" fill="#455A64"/>
<path d="M93.9154 93.686L71.26 115.05L73.3388 117.255L95.9942 95.8904L93.9154 93.686Z" fill="#455A64"/>
<path d="M69.89 88.55H56.16V120.11H69.89V88.55Z" fill="#263238"/>
<path d="M83.64 88.55H69.89V120.11H83.64V88.55Z" fill="#455A64"/>
<path d="M101.79 120.11H75.4301V135.85H101.79V120.11Z" fill="#455A64"/>
<path d="M357.46 112.2H69.89V120.11H357.46V112.2Z" fill="#455A64"/>
<path d="M341.05 96.46H69.89V88.55H333.32L341.05 96.46Z" fill="#455A64"/>
<path d="M338.68 94.28H335.65V116.16H338.68V94.28Z" fill="#455A64"/>
<path d="M227.92 206.13L246.92 203.09L265.92 200.15L303.96 194.42L304.06 194.41L304.16 194.43L367.46 210.85L399.1 219.14L430.7 227.54L398.97 219.63L367.27 211.6L303.91 195.39L304.11 195.4L266.03 200.89L246.99 203.56L227.92 206.13Z" fill="#263238"/>
<path d="M292.41 123.34H289.38V168.14H292.41V123.34Z" fill="#263238"/>
<path d="M318.08 124.34H315.05V169.14H318.08V124.34Z" fill="#263238"/>
<path d="M323.95 120.11H283.94V126.56H323.95V120.11Z" fill="#455A64"/>
<path d="M305.46 175.67L305.12 182.4L304.12 181.24C305.202 181.519 306.235 181.964 307.18 182.56C308.155 183.146 308.977 183.955 309.58 184.92C310.16 185.893 310.453 187.011 310.425 188.143C310.397 189.276 310.048 190.377 309.42 191.32C308.833 192.21 308.027 192.935 307.08 193.425C306.133 193.915 305.076 194.154 304.01 194.12C303.002 194.038 302.027 193.724 301.16 193.204C300.292 192.684 299.557 191.971 299.01 191.12C299.604 191.876 300.364 192.486 301.231 192.902C302.098 193.318 303.048 193.529 304.01 193.52C304.924 193.463 305.809 193.175 306.58 192.681C307.352 192.188 307.985 191.506 308.42 190.7C308.825 189.951 309.012 189.102 308.959 188.252C308.906 187.402 308.615 186.583 308.12 185.89C306.986 184.598 305.416 183.769 303.71 183.56L302.79 183.4L302.74 182.4L302.41 175.67H305.46Z" fill="#263238"/>
<path d="M323.95 161.87V172.85L303.94 177.6L283.94 172.85V161.87H323.95Z" fill="#455A64"/>
<path d="M293.12 168.31C293.122 168.771 292.987 169.223 292.732 169.607C292.477 169.992 292.114 170.292 291.689 170.47C291.263 170.648 290.794 170.695 290.342 170.606C289.889 170.518 289.473 170.297 289.146 169.971C288.819 169.646 288.596 169.23 288.506 168.778C288.415 168.326 288.46 167.857 288.636 167.431C288.813 167.004 289.111 166.64 289.495 166.383C289.878 166.127 290.329 165.99 290.79 165.99C291.096 165.989 291.398 166.048 291.681 166.164C291.964 166.28 292.221 166.45 292.437 166.666C292.654 166.882 292.825 167.138 292.943 167.42C293.06 167.702 293.12 168.004 293.12 168.31Z" fill="#263238"/>
<path d="M319.41 168.31C319.41 168.769 319.274 169.217 319.019 169.599C318.764 169.98 318.402 170.278 317.978 170.453C317.554 170.629 317.087 170.675 316.637 170.585C316.187 170.496 315.774 170.275 315.45 169.95C315.125 169.626 314.904 169.213 314.815 168.763C314.725 168.313 314.771 167.846 314.947 167.422C315.122 166.998 315.42 166.636 315.801 166.381C316.183 166.126 316.631 165.99 317.09 165.99C317.705 165.99 318.295 166.234 318.731 166.669C319.166 167.105 319.41 167.695 319.41 168.31Z" fill="#263238"/>
<path d="M221.7 251.868L425.743 273.818L430.722 227.535L226.679 205.585L221.7 251.868Z" fill="#024A62"/>
<path d="M333.24 253.79L426.8 263.86L382.72 233.66L333.24 253.79Z" fill="#024A62"/>
<path opacity="0.2" d="M333.24 253.79L426.8 263.86L382.72 233.66L333.24 253.79Z" fill="black"/>
<path d="M287.17 248.86L370.14 257.79L330.42 236.94L287.17 248.86Z" fill="#024A62"/>
<path opacity="0.1" d="M287.17 248.86L370.14 257.79L330.42 236.94L287.17 248.86Z" fill="black"/>
<path d="M426.786 263.875L222.743 241.925L221.67 251.897L425.713 273.847L426.786 263.875Z" fill="#024A62"/>
<path opacity="0.1" d="M426.786 263.875L222.743 241.925L221.67 251.897L425.713 273.847L426.786 263.875Z" fill="black"/>
<path opacity="0.6" d="M251.82 223.65C251.68 224.893 251.176 226.067 250.369 227.023C249.563 227.979 248.492 228.676 247.29 229.023C246.089 229.371 244.811 229.356 243.619 228.978C242.426 228.6 241.372 227.878 240.59 226.902C239.808 225.926 239.332 224.74 239.224 223.494C239.115 222.248 239.378 220.997 239.979 219.901C240.58 218.804 241.493 217.91 242.602 217.331C243.711 216.752 244.966 216.516 246.21 216.65C247.039 216.738 247.843 216.99 248.574 217.39C249.306 217.79 249.951 218.331 250.472 218.982C250.994 219.633 251.381 220.38 251.613 221.181C251.844 221.982 251.914 222.821 251.82 223.65Z" fill="white"/>
<path d="M137 52.23C137 53.2426 136.7 54.2325 136.137 55.0745C135.575 55.9165 134.775 56.5727 133.839 56.9602C132.904 57.3478 131.874 57.4492 130.881 57.2516C129.888 57.054 128.976 56.5664 128.26 55.8504C127.544 55.1343 127.056 54.222 126.858 53.2288C126.661 52.2357 126.762 51.2062 127.15 50.2706C127.537 49.3351 128.194 48.5355 129.035 47.9729C129.877 47.4103 130.867 47.11 131.88 47.11C133.238 47.11 134.54 47.6494 135.5 48.6096C136.461 49.5698 137 50.8721 137 52.23Z" fill="#A6A6A6"/>
<path d="M134.25 52.23C134.252 52.7055 134.113 53.1709 133.85 53.5671C133.587 53.9633 133.212 54.2725 132.773 54.4554C132.334 54.6383 131.851 54.6866 131.384 54.5943C130.918 54.5021 130.489 54.2733 130.153 53.937C129.817 53.6008 129.588 53.1722 129.496 52.7057C129.403 52.2393 129.452 51.7559 129.635 51.3169C129.818 50.878 130.127 50.5032 130.523 50.2403C130.919 49.9773 131.385 49.838 131.86 49.84C132.494 49.84 133.102 50.0918 133.55 50.54C133.998 50.9882 134.25 51.5961 134.25 52.23Z" fill="#455A64"/>
<path d="M153.75 388.05H109.57V398.49H153.75V388.05Z" fill="#263238"/>
<path d="M163.33 398.49H99.99V418.97H163.33V398.49Z" fill="#455A64"/>
<path d="M157.35 138.37H110.07V86H141C143.614 85.999 146.139 86.9478 148.105 88.6696C150.072 90.3914 151.346 92.769 151.69 95.36L157.35 138.37Z" fill="#024A62"/>
<path d="M144.48 122.47H122.32C122.079 122.475 121.839 122.438 121.61 122.36C121.096 122.205 120.646 121.89 120.325 121.459C120.004 121.029 119.831 120.507 119.83 119.97V92H135.59C136.121 91.9939 136.65 92.0442 137.17 92.15C138.354 92.3524 139.482 92.8021 140.48 93.47C141.173 93.9321 141.793 94.495 142.32 95.14C143.402 96.4151 144.096 97.9731 144.32 99.63L146.98 119.63C147.026 119.985 146.995 120.346 146.89 120.688C146.785 121.03 146.609 121.346 146.372 121.615C146.135 121.884 145.844 122.099 145.518 122.246C145.192 122.394 144.838 122.47 144.48 122.47Z" fill="#263238"/>
<g opacity="0.4">
<path d="M142.1 107.88C142.101 108.206 142.037 108.528 141.912 108.829C141.787 109.129 141.602 109.402 141.37 109.63L128.54 122.47H122.32C122.079 122.475 121.839 122.438 121.61 122.36L137.86 106.12C138.209 105.775 138.652 105.542 139.133 105.448C139.614 105.354 140.112 105.404 140.565 105.592C141.018 105.78 141.405 106.097 141.678 106.504C141.951 106.911 142.098 107.39 142.1 107.88Z" fill="white"/>
<path d="M142.32 95.15L119.83 117.63V114.13L140.48 93.48C141.173 93.9421 141.793 94.505 142.32 95.15Z" fill="white"/>
<path d="M137.17 92.16L124.4 104.93C124.139 105.191 123.806 105.368 123.444 105.44C123.081 105.512 122.706 105.474 122.365 105.333C122.024 105.192 121.732 104.953 121.527 104.647C121.321 104.34 121.211 103.979 121.21 103.61C121.212 103.368 121.261 103.128 121.355 102.905C121.45 102.682 121.587 102.48 121.76 102.31L132.06 92H135.59C136.121 91.9972 136.651 92.0508 137.17 92.16Z" fill="white"/>
</g>
<path d="M106.73 356.33L105.78 363.13L104.75 370.44L95.35 437.05H79.99L89.39 370.44L90.42 363.13L91.37 356.33H106.73Z" fill="#024A62"/>
<path opacity="0.1" d="M104.51 356.33C103.7 363.08 102.83 369.82 101.95 376.55L99.24 396.75L96.4 416.91L94.94 427L93.41 437.06L94.66 426.95L96 416.83L98.71 396.64L101.55 376.47C102.49 369.75 103.47 363 104.51 356.33Z" fill="black"/>
<path opacity="0.1" d="M105.78 363.13L104.75 370.44H89.39L90.42 363.13H105.78Z" fill="black"/>
<path d="M182.56 356.33L183.51 363.13L184.54 370.44L193.93 437.05H209.29L199.9 370.44L198.87 363.13L197.92 356.33H182.56Z" fill="#024A62"/>
<path opacity="0.1" d="M184.83 356.33C185.64 363.08 186.51 369.82 187.39 376.55L190.1 396.75L192.94 416.91L194.4 427L195.93 437.06L194.68 426.95L193.37 416.84L190.66 396.65L187.82 376.48C186.85 369.75 185.87 363 184.83 356.33Z" fill="black"/>
<path opacity="0.1" d="M183.51 363.13H198.87L199.9 370.44H184.54L183.51 363.13Z" fill="black"/>
<path d="M106.17 342.36H93.99L95.51 331.01H104.66L106.17 342.36Z" fill="#024A62"/>
<path opacity="0.1" d="M106.17 342.36H93.99L95.51 331.01H104.66L106.17 342.36Z" fill="black"/>
<path d="M111.43 322.89C111.43 325.135 110.764 327.329 109.517 329.196C108.27 331.062 106.497 332.517 104.423 333.376C102.349 334.235 100.067 334.46 97.8657 334.022C95.664 333.584 93.6416 332.503 92.0543 330.916C90.467 329.328 89.386 327.306 88.9481 325.104C88.5101 322.903 88.7349 320.621 89.5939 318.547C90.453 316.473 91.9078 314.7 93.7743 313.453C95.6408 312.206 97.8352 311.54 100.08 311.54C101.57 311.54 103.046 311.834 104.423 312.404C105.8 312.974 107.052 313.81 108.106 314.864C109.16 315.918 109.996 317.17 110.566 318.547C111.136 319.924 111.43 321.4 111.43 322.89Z" fill="#024A62"/>
<path d="M108.71 322.89C108.712 324.597 108.207 326.267 107.26 327.687C106.313 329.108 104.966 330.216 103.389 330.87C101.813 331.525 100.077 331.697 98.4025 331.365C96.7277 331.034 95.1891 330.212 93.9812 329.006C92.7732 327.799 91.9503 326.262 91.6165 324.587C91.2827 322.913 91.453 321.177 92.1059 319.6C92.7588 318.022 93.8649 316.674 95.2843 315.725C96.7038 314.776 98.3727 314.27 100.08 314.27C102.367 314.27 104.561 315.178 106.179 316.794C107.797 318.41 108.707 320.603 108.71 322.89Z" fill="white"/>
<path d="M107.29 322.39C107.212 321.362 106.922 320.361 106.438 319.451C105.955 318.541 105.288 317.74 104.48 317.1C103.664 316.468 102.729 316.008 101.73 315.747C100.732 315.486 99.6909 315.429 98.67 315.58C97.655 315.736 96.6846 316.106 95.8228 316.664C94.961 317.223 94.2273 317.957 93.67 318.82C93.0828 319.732 92.6977 320.758 92.5408 321.831C92.3838 322.904 92.4585 323.998 92.76 325.04C93.2729 326.854 94.485 328.39 96.13 329.31C97.73 330.222 99.6103 330.51 101.41 330.12C103.154 329.753 104.719 328.796 105.84 327.41C106.945 326.042 107.583 324.357 107.66 322.6C107.66 322.52 107.66 322.45 107.59 322.45C107.52 322.45 107.51 322.51 107.51 322.6C107.468 323.308 107.333 324.007 107.11 324.68C106.635 326.009 105.818 327.189 104.74 328.1C104.191 328.556 103.591 328.946 102.95 329.26C102.034 329.697 101.035 329.936 100.02 329.96C99.0048 329.984 97.9961 329.793 97.06 329.4C96.1158 329.003 95.2691 328.406 94.5784 327.65C93.8878 326.894 93.3697 325.996 93.06 325.02C92.7505 324.024 92.6583 322.973 92.7894 321.938C92.9205 320.903 93.2719 319.908 93.82 319.02C94.3532 318.169 95.0632 317.443 95.9017 316.891C96.7403 316.339 97.6878 315.974 98.68 315.82C100.017 315.606 101.386 315.757 102.644 316.259C103.901 316.761 104.998 317.594 105.82 318.67C106.231 319.22 106.567 319.822 106.82 320.46C107.044 321.108 107.195 321.779 107.27 322.46C107.281 322.452 107.288 322.441 107.292 322.428C107.295 322.416 107.295 322.402 107.29 322.39Z" fill="#024A62"/>
<path d="M106.28 322.4C106.203 321.52 105.947 320.665 105.528 319.887C105.108 319.11 104.534 318.427 103.84 317.88C103.137 317.338 102.332 316.943 101.473 316.718C100.614 316.493 99.7187 316.442 98.84 316.57C97.9681 316.698 97.1333 317.009 96.3904 317.483C95.6476 317.957 95.0135 318.583 94.53 319.32C94.0127 320.106 93.67 320.994 93.5251 321.924C93.3802 322.854 93.4364 323.804 93.69 324.71C93.907 325.493 94.2767 326.226 94.7778 326.866C95.2789 327.507 95.9016 328.041 96.61 328.44C98.0116 329.223 99.6506 329.468 101.22 329.13C102.733 328.801 104.086 327.961 105.05 326.75C106.005 325.562 106.558 324.102 106.63 322.58C106.63 322.51 106.63 322.45 106.56 322.45C106.49 322.45 106.48 322.5 106.48 322.58C106.394 323.802 105.983 324.979 105.291 325.99C104.598 327.001 103.649 327.808 102.54 328.33C101.751 328.715 100.889 328.927 100.011 328.953C99.1336 328.979 98.2605 328.817 97.45 328.48C96.6327 328.134 95.9007 327.613 95.3049 326.955C94.7091 326.297 94.2638 325.518 94 324.67C93.7353 323.804 93.66 322.892 93.779 321.995C93.8981 321.098 94.2088 320.237 94.69 319.47C95.1541 318.746 95.7684 318.13 96.4914 317.664C97.2143 317.198 98.0289 316.893 98.88 316.77C100.019 316.597 101.183 316.73 102.253 317.155C103.323 317.58 104.261 318.283 104.97 319.19C105.314 319.662 105.596 320.177 105.81 320.72C106.009 321.273 106.146 321.847 106.22 322.43L106.28 322.4Z" fill="#024A62"/>
<path d="M105.27 322.41C105.198 321.679 104.977 320.97 104.621 320.326C104.265 319.683 103.781 319.12 103.2 318.67C102.031 317.77 100.553 317.371 99.09 317.56C98.3589 317.657 97.6566 317.908 97.0293 318.296C96.402 318.683 95.8637 319.2 95.45 319.81C95.0031 320.471 94.7032 321.22 94.5703 322.006C94.4375 322.793 94.4749 323.599 94.68 324.37C94.8564 325.042 95.1671 325.671 95.5933 326.219C96.0196 326.767 96.5525 327.223 97.16 327.56C98.3526 328.235 99.7548 328.438 101.09 328.13C102.367 327.854 103.511 327.148 104.33 326.13C105.129 325.12 105.593 323.886 105.66 322.6C105.66 322.54 105.66 322.49 105.59 322.49C105.52 322.49 105.51 322.49 105.51 322.6C105.427 323.626 105.077 324.613 104.494 325.462C103.912 326.311 103.118 326.993 102.19 327.44C101.525 327.77 100.798 327.955 100.056 327.981C99.3145 328.006 98.5759 327.873 97.89 327.59C97.1962 327.296 96.5769 326.85 96.077 326.286C95.577 325.722 95.2091 325.054 95 324.33C94.7827 323.599 94.7265 322.83 94.8353 322.076C94.944 321.321 95.2152 320.6 95.63 319.96C96.0238 319.364 96.5409 318.859 97.1464 318.479C97.7519 318.1 98.4317 317.855 99.14 317.76C100.08 317.649 101.032 317.762 101.92 318.09C102.811 318.425 103.593 319 104.18 319.75C104.47 320.137 104.709 320.561 104.89 321.01C105.065 321.468 105.189 321.945 105.26 322.43C105.26 322.43 105.28 322.43 105.27 322.41Z" fill="#024A62"/>
<path d="M104.26 322.42C104.193 321.831 104.008 321.262 103.716 320.747C103.424 320.231 103.031 319.78 102.56 319.42C101.627 318.717 100.462 318.392 99.3 318.51C98.7031 318.576 98.127 318.768 97.6098 319.073C97.0926 319.378 96.6462 319.789 96.3 320.28C95.9229 320.815 95.6652 321.425 95.5445 322.069C95.4237 322.712 95.4426 323.374 95.6 324.01C95.7352 324.565 95.9824 325.086 96.3263 325.542C96.6702 325.997 97.1037 326.378 97.6 326.66C98.5884 327.213 99.75 327.37 100.85 327.1C101.905 326.854 102.841 326.249 103.5 325.39C104.144 324.562 104.52 323.557 104.58 322.51C104.58 322.46 104.58 322.42 104.51 322.42C104.488 322.423 104.467 322.433 104.453 322.45C104.438 322.466 104.43 322.488 104.43 322.51C104.354 323.34 104.066 324.137 103.593 324.823C103.12 325.51 102.478 326.063 101.73 326.43C101.194 326.711 100.603 326.872 99.9987 326.902C99.3942 326.931 98.7906 326.828 98.23 326.6C97.6794 326.362 97.1879 326.005 96.7905 325.556C96.393 325.107 96.0992 324.576 95.93 324C95.7605 323.405 95.7229 322.78 95.8196 322.168C95.9163 321.557 96.1451 320.974 96.49 320.46C96.8127 319.989 97.2339 319.595 97.7242 319.303C98.2146 319.011 98.7625 318.829 99.33 318.77C100.072 318.704 100.819 318.799 101.52 319.05C102.226 319.308 102.849 319.754 103.32 320.34C103.558 320.647 103.756 320.983 103.91 321.34C104.049 321.71 104.157 322.091 104.23 322.48C104.23 322.48 104.27 322.43 104.26 322.42Z" fill="#024A62"/>
<path d="M195.03 342.36H182.85L184.37 331.01H193.52L195.03 342.36Z" fill="#024A62"/>
<path opacity="0.1" d="M195.03 342.36H182.85L184.37 331.01H193.52L195.03 342.36Z" fill="black"/>
<path d="M200.29 322.89C200.29 325.135 199.624 327.329 198.377 329.196C197.13 331.062 195.357 332.517 193.283 333.376C191.209 334.235 188.927 334.46 186.726 334.022C184.524 333.584 182.502 332.503 180.914 330.916C179.327 329.328 178.246 327.306 177.808 325.104C177.37 322.903 177.595 320.621 178.454 318.547C179.313 316.473 180.768 314.7 182.634 313.453C184.501 312.206 186.695 311.54 188.94 311.54C190.43 311.54 191.906 311.834 193.283 312.404C194.66 312.974 195.912 313.81 196.966 314.864C198.02 315.918 198.856 317.17 199.426 318.547C199.996 319.924 200.29 321.4 200.29 322.89Z" fill="#024A62"/>
<path d="M197.57 322.89C197.572 324.597 197.067 326.267 196.12 327.687C195.173 329.108 193.826 330.216 192.249 330.87C190.673 331.525 188.937 331.697 187.262 331.365C185.588 331.034 184.049 330.212 182.841 329.006C181.633 327.799 180.81 326.262 180.476 324.587C180.143 322.913 180.313 321.177 180.966 319.6C181.619 318.022 182.725 316.674 184.144 315.725C185.564 314.776 187.233 314.27 188.94 314.27C191.227 314.27 193.421 315.178 195.039 316.794C196.657 318.41 197.567 320.603 197.57 322.89Z" fill="white"/>
<path d="M196.15 322.39C196.072 321.362 195.782 320.361 195.298 319.451C194.815 318.541 194.148 317.74 193.34 317.1C192.524 316.468 191.589 316.008 190.59 315.747C189.592 315.486 188.551 315.429 187.53 315.58C186.515 315.736 185.545 316.106 184.683 316.664C183.821 317.223 183.087 317.957 182.53 318.82C181.943 319.732 181.558 320.758 181.401 321.831C181.244 322.904 181.319 323.998 181.62 325.04C182.133 326.854 183.345 328.39 184.99 329.31C186.59 330.222 188.47 330.51 190.27 330.12C192.014 329.753 193.579 328.796 194.7 327.41C195.809 326.045 196.448 324.358 196.52 322.6C196.52 322.52 196.52 322.45 196.45 322.45C196.38 322.45 196.37 322.51 196.37 322.6C196.333 323.308 196.198 324.008 195.97 324.68C195.495 326.009 194.678 327.189 193.6 328.1C193.051 328.556 192.45 328.946 191.81 329.26C190.894 329.697 189.895 329.936 188.88 329.96C187.865 329.984 186.856 329.793 185.92 329.4C184.976 329.003 184.129 328.406 183.438 327.65C182.748 326.894 182.23 325.996 181.92 325.02C181.611 324.024 181.518 322.973 181.649 321.938C181.78 320.903 182.132 319.908 182.68 319.02C183.213 318.169 183.923 317.443 184.762 316.891C185.6 316.339 186.548 315.974 187.54 315.82C188.877 315.606 190.246 315.757 191.504 316.259C192.761 316.761 193.858 317.594 194.68 318.67C195.091 319.22 195.427 319.822 195.68 320.46C195.904 321.108 196.055 321.779 196.13 322.46C196.144 322.44 196.151 322.415 196.15 322.39Z" fill="#024A62"/>
<path d="M195.14 322.4C195.063 321.52 194.807 320.665 194.388 319.887C193.968 319.11 193.394 318.427 192.7 317.88C191.997 317.338 191.192 316.943 190.333 316.718C189.474 316.493 188.579 316.442 187.7 316.57C186.828 316.698 185.993 317.009 185.25 317.483C184.508 317.957 183.873 318.583 183.39 319.32C182.873 320.106 182.53 320.994 182.385 321.924C182.24 322.854 182.296 323.804 182.55 324.71C182.767 325.493 183.137 326.226 183.638 326.866C184.139 327.507 184.762 328.041 185.47 328.44C186.872 329.223 188.511 329.468 190.08 329.13C191.593 328.801 192.946 327.961 193.91 326.75C194.865 325.562 195.418 324.102 195.49 322.58C195.49 322.51 195.49 322.45 195.42 322.45C195.35 322.45 195.34 322.5 195.34 322.58C195.254 323.802 194.843 324.979 194.151 325.99C193.458 327.001 192.509 327.808 191.4 328.33C190.611 328.715 189.749 328.927 188.871 328.953C187.994 328.979 187.121 328.817 186.31 328.48C185.491 328.135 184.757 327.615 184.159 326.957C183.562 326.299 183.115 325.519 182.85 324.67C182.585 323.804 182.51 322.892 182.629 321.995C182.748 321.098 183.059 320.237 183.54 319.47C184.004 318.746 184.618 318.13 185.341 317.664C186.064 317.198 186.879 316.893 187.73 316.77C188.869 316.597 190.033 316.73 191.103 317.155C192.173 317.58 193.111 318.283 193.82 319.19C194.164 319.662 194.446 320.177 194.66 320.72C194.859 321.273 194.996 321.847 195.07 322.43C195.07 322.43 195.15 322.42 195.14 322.4Z" fill="#024A62"/>
<path d="M194.13 322.41C194.058 321.679 193.837 320.97 193.481 320.326C193.125 319.683 192.641 319.12 192.06 318.67C190.891 317.77 189.413 317.371 187.95 317.56C187.219 317.657 186.517 317.908 185.889 318.296C185.262 318.683 184.724 319.2 184.31 319.81C183.863 320.471 183.563 321.22 183.43 322.006C183.297 322.793 183.335 323.599 183.54 324.37C183.716 325.042 184.027 325.671 184.453 326.219C184.88 326.767 185.413 327.223 186.02 327.56C187.213 328.235 188.615 328.438 189.95 328.13C191.227 327.854 192.371 327.148 193.19 326.13C193.993 325.122 194.458 323.887 194.52 322.6C194.52 322.54 194.52 322.49 194.45 322.49C194.38 322.49 194.37 322.49 194.37 322.6C194.287 323.626 193.937 324.613 193.354 325.462C192.772 326.311 191.978 326.993 191.05 327.44C190.385 327.77 189.658 327.955 188.916 327.981C188.175 328.006 187.436 327.873 186.75 327.59C186.057 327.302 185.436 326.864 184.933 326.307C184.43 325.75 184.056 325.089 183.84 324.37C183.623 323.639 183.566 322.87 183.675 322.116C183.784 321.361 184.055 320.64 184.47 320C184.864 319.404 185.381 318.899 185.986 318.519C186.592 318.14 187.272 317.895 187.98 317.8C188.92 317.689 189.872 317.802 190.76 318.13C191.439 318.374 192.059 318.762 192.576 319.265C193.094 319.769 193.497 320.377 193.76 321.05C193.935 321.508 194.059 321.985 194.13 322.47C194.13 322.47 194.14 322.43 194.13 322.41Z" fill="#024A62"/>
<path d="M193.12 322.42C193.053 321.831 192.868 321.262 192.576 320.747C192.284 320.231 191.891 319.78 191.42 319.42C190.487 318.716 189.323 318.391 188.16 318.51C187.563 318.576 186.987 318.768 186.47 319.073C185.953 319.378 185.506 319.789 185.16 320.28C184.785 320.816 184.528 321.426 184.407 322.069C184.287 322.713 184.305 323.374 184.46 324.01C184.595 324.565 184.842 325.086 185.186 325.542C185.53 325.997 185.964 326.378 186.46 326.66C187.448 327.213 188.61 327.37 189.71 327.1C190.765 326.854 191.701 326.249 192.36 325.39C193.004 324.562 193.381 323.557 193.44 322.51C193.44 322.46 193.44 322.42 193.37 322.42C193.348 322.422 193.328 322.433 193.313 322.45C193.298 322.466 193.29 322.488 193.29 322.51C193.214 323.34 192.926 324.137 192.453 324.823C191.98 325.51 191.338 326.063 190.59 326.43C190.054 326.711 189.463 326.872 188.859 326.902C188.254 326.931 187.651 326.828 187.09 326.6C186.521 326.365 186.012 326.005 185.602 325.546C185.192 325.087 184.89 324.542 184.72 323.95C184.551 323.355 184.513 322.73 184.61 322.118C184.706 321.507 184.935 320.924 185.28 320.41C185.603 319.939 186.024 319.545 186.514 319.253C187.005 318.961 187.552 318.779 188.12 318.72C188.862 318.654 189.609 318.749 190.31 319C191.016 319.258 191.639 319.704 192.11 320.29C192.348 320.597 192.546 320.933 192.7 321.29C192.839 321.66 192.947 322.041 193.02 322.43C193.02 322.43 193.13 322.43 193.12 322.42Z" fill="#024A62"/>
<path d="M221.16 336.57H68.12V365.84H221.16V336.57Z" fill="white"/>
<path d="M221.42 366.09H67.87V336.32H221.42V366.09ZM68.42 365.59H220.92V336.82H68.37L68.42 365.59Z" fill="#263238"/>
<path d="M99.58 336.57L88.47 365.85H68.71L79.81 336.57H99.58Z" fill="#024A62"/>
<path d="M140.09 336.57L128.99 365.85H109.21L120.32 336.57H140.09Z" fill="#024A62"/>
<path d="M180.6 336.57L169.49 365.85H149.73L160.84 336.57H180.6Z" fill="#024A62"/>
<path d="M221.12 336.57L210.01 365.85H190.24L201.34 336.57H221.12Z" fill="#024A62"/>
<path d="M218.07 401.62H71.22V420.15H218.07V401.62Z" fill="white"/>
<path d="M218.32 420.4H71V401.4H218.32V420.4ZM71.47 419.9H217.82V401.9H71.47V419.9Z" fill="#263238"/>
<path d="M101.4 401.62L90.74 420.15H71.78L82.44 401.62H101.4Z" fill="#024A62"/>
<path d="M140.28 401.62L129.62 420.15H110.65L121.31 401.62H140.28Z" fill="#024A62"/>
<path d="M179.14 401.62L168.49 420.15H149.52L160.18 401.62H179.14Z" fill="#024A62"/>
<path d="M218.02 401.62L207.36 420.15H188.39L199.05 401.62H218.02Z" fill="#024A62"/>
<path d="M167.809 356.729C170.862 343.933 162.964 331.084 150.168 328.031C137.371 324.978 124.523 332.876 121.47 345.673C118.417 358.469 126.315 371.317 139.111 374.37C151.907 377.424 164.756 369.525 167.809 356.729Z" fill="white"/>
<path d="M144.64 375.27C139.879 375.27 135.225 373.858 131.266 371.213C127.308 368.567 124.223 364.808 122.401 360.409C120.58 356.01 120.104 351.17 121.033 346.501C121.963 341.831 124.256 337.542 127.623 334.176C130.991 330.811 135.28 328.519 139.95 327.591C144.62 326.664 149.46 327.142 153.858 328.965C158.256 330.788 162.015 333.875 164.658 337.835C167.302 341.794 168.712 346.449 168.71 351.21C168.705 357.591 166.167 363.709 161.654 368.221C157.14 372.732 151.021 375.267 144.64 375.27ZM144.64 327.64C139.978 327.64 135.421 329.022 131.545 331.612C127.669 334.202 124.648 337.883 122.864 342.19C121.08 346.497 120.613 351.236 121.523 355.808C122.432 360.38 124.677 364.58 127.973 367.877C131.27 371.173 135.47 373.418 140.042 374.327C144.614 375.237 149.353 374.77 153.66 372.986C157.967 371.202 161.648 368.181 164.238 364.305C166.828 360.429 168.21 355.872 168.21 351.21C168.205 344.96 165.72 338.968 161.301 334.549C156.882 330.13 150.889 327.645 144.64 327.64Z" fill="#263238"/>
<path d="M164.289 355.889C166.873 345.042 160.175 334.154 149.328 331.57C138.48 328.985 127.592 335.684 125.008 346.531C122.424 357.378 129.123 368.266 139.97 370.85C150.817 373.434 161.705 366.736 164.289 355.889Z" fill="#024A62"/>
<path d="M157.3 348.86H131.98V353.55H157.3V348.86Z" fill="white"/>
<path d="M477.88 439.5L482.94 404.68L484.41 405.34L486.75 406.4L496.91 411L506 415.1L512 417.81L521.11 421.93L526.11 424.18C526.973 424.649 527.673 425.372 528.113 426.25C528.554 427.129 528.715 428.121 528.574 429.094C528.434 430.067 527.998 430.973 527.327 431.691C526.656 432.409 525.781 432.904 524.82 433.11L522.71 433.4L519.39 433.85L509.5 435.19L502.98 436.08L493.08 437.43L488.94 438L477.88 439.5Z" fill="#024A62"/>
<g style="mix-blend-mode:multiply" opacity="0.1">
<path d="M484.66 405.65C484.16 406.959 483.537 408.218 482.8 409.41C479.71 414.23 477.48 424.09 479.16 435.41C479.256 436.634 479.509 437.84 479.91 439L482.03 438.86C482.03 438.86 491.9 417.2 524.17 423.22L521.17 421.84L512.07 417.74L506.07 415.03L496.97 410.91L484.66 405.65Z" fill="black"/>
</g>
<path d="M509.49 435.19L512.01 417.81L521.12 421.93L519.38 433.85L509.49 435.19Z" fill="#EBEBEB"/>
<path d="M493.07 437.43L496.91 410.99L506.02 415.11L502.97 436.08L493.07 437.43Z" fill="#EBEBEB"/>
<path d="M389 438.64H355.1L355.52 437.14L356.21 434.76L359.21 424.44L361.87 415.19L363.62 409.1L366.28 399.85L367.74 394.78C368.065 393.89 368.655 393.121 369.432 392.578C370.208 392.035 371.133 391.744 372.08 391.744C373.027 391.744 373.952 392.035 374.728 392.578C375.505 393.121 376.095 393.89 376.42 394.78L376.99 396.78L377.88 399.87L380.54 409.12L382.29 415.21L384.95 424.46L386.06 428.33L389 438.64Z" fill="#024A62"/>
<path d="M390.25 447.43H345.7L352.8 429.84H397.35L390.25 447.43Z" fill="#024A62"/>
<path d="M380.55 409.1H363.63L366.29 399.86H377.89L380.55 409.1Z" fill="#EBEBEB"/>
<path d="M384.96 424.44H359.22L361.88 415.19H382.3L384.96 424.44Z" fill="#EBEBEB"/>
<path d="M354.66 436.28C357.404 437.512 360.294 438.389 363.26 438.89C366.195 439.401 369.172 439.629 372.15 439.57C373.64 439.47 375.15 439.46 376.61 439.23C377.35 439.13 378.1 439.08 378.83 438.95C379.56 438.82 380.3 438.67 381.04 438.55C381.41 438.48 381.78 438.42 382.15 438.34L383.24 438.07L385.43 437.54C386.88 437.15 388.31 436.66 389.79 436.28C388.42 436.93 387.04 437.58 385.63 438.14L383.46 438.88L382.38 439.24C382.01 439.35 381.64 439.43 381.27 439.53L379.03 440.06C378.29 440.23 377.52 440.31 376.77 440.44C375.248 440.66 373.716 440.8 372.18 440.86C369.107 440.913 366.039 440.577 363.05 439.86C360.057 439.193 357.213 437.979 354.66 436.28Z" fill="#263238"/>
<g style="mix-blend-mode:multiply" opacity="0.1">
<path d="M355.83 436.86C357.146 437.157 358.431 437.575 359.67 438.11C364.67 440.39 374.4 441.11 385.01 437.97C386.16 437.708 387.272 437.301 388.32 436.76L387.89 434.76C387.89 434.76 365.89 428.36 367.15 396.76L366.26 399.85L363.6 409.1L361.85 415.19L359.19 424.44L355.83 436.86Z" fill="black"/>
</g>
<path d="M468.66 439.44L475.31 393.66L492.33 403.59L485.67 449.36L468.66 439.44Z" fill="#024A62"/>
<path d="M485.61 422.53C484.66 430.99 481.61 437.59 478.77 437.27C475.93 436.95 474.42 429.84 475.37 421.38C476.32 412.92 479.37 406.33 482.22 406.65C485.07 406.97 486.56 414.08 485.61 422.53Z" fill="#263238"/>
<path d="M561.89 447.37C563.89 447.99 620.38 446.78 622.5 445.37C623.31 444.84 623.61 436.59 623.7 426.63C623.7 424.48 623.7 422.26 623.7 420C623.7 417.32 623.7 414.62 623.65 412C623.5 400.2 623.14 389.81 623.14 389.81L586.36 390.49L586.79 412.68L586.94 420.68L587.26 427.3C587.26 427.3 565.83 437.45 563.67 439.24C561.51 441.03 559.9 446.76 561.89 447.37Z" fill="#D3766A"/>
<path d="M561.89 447.37C563.89 447.99 620.38 446.78 622.5 445.37C623.31 444.84 623.61 436.59 623.7 426.63C623.7 424.48 623.7 422.26 623.7 420C623.7 417.32 623.7 414.62 623.65 412L586.79 412.68L586.94 420.68L587.26 427.3C587.26 427.3 565.83 437.45 563.67 439.24C561.51 441.03 559.9 446.76 561.89 447.37Z" fill="white"/>
<path d="M561.72 447.46C563.01 447.86 587.08 447.46 604.6 446.81C608.6 446.65 612.36 446.47 615.35 446.28C619.47 446.02 622.23 445.74 622.67 445.45C623.67 444.79 623.91 432.7 623.89 419.94L586.89 420.63L587.2 427.29C587.2 427.29 565.66 437.48 563.48 439.29C561.3 441.1 559.73 446.83 561.72 447.46Z" fill="#024A62"/>
<path d="M562.48 445.17C572 444.73 610.48 443.86 619.88 444.17C619.96 444.17 619.96 444.17 619.88 444.17C610.45 444.81 572.02 445.37 562.49 445.29C562.29 445.32 562.28 445.18 562.48 445.17Z" fill="#263238"/>
<path d="M585.85 425.2C589.59 424.42 594.18 424.9 597.1 427.51C597.22 427.61 597.1 427.77 596.95 427.73C593.343 426.654 589.632 425.963 585.88 425.67C585.825 425.663 585.774 425.637 585.736 425.596C585.698 425.555 585.675 425.503 585.672 425.447C585.668 425.392 585.684 425.337 585.716 425.292C585.749 425.247 585.796 425.214 585.85 425.2Z" fill="#263238"/>
<path d="M583.18 426.89C586.92 426.11 591.51 426.59 594.43 429.2C594.55 429.3 594.43 429.46 594.28 429.42C590.674 428.339 586.963 427.648 583.21 427.36C583.155 427.353 583.104 427.327 583.066 427.286C583.028 427.245 583.005 427.193 583.002 427.137C582.998 427.082 583.014 427.027 583.047 426.982C583.079 426.937 583.126 426.904 583.18 426.89Z" fill="#263238"/>
<path d="M580.51 428.58C584.24 427.8 588.84 428.28 591.76 430.88C591.87 430.99 591.76 431.14 591.61 431.11C588.004 430.03 584.293 429.339 580.54 429.05C580.485 429.043 580.434 429.017 580.396 428.976C580.358 428.935 580.335 428.883 580.332 428.827C580.328 428.772 580.344 428.717 580.376 428.672C580.409 428.627 580.456 428.594 580.51 428.58Z" fill="#263238"/>
<path d="M577.84 430.27C581.57 429.49 586.17 429.96 589.09 432.57C589.2 432.67 589.09 432.83 588.94 432.8C585.334 431.72 581.623 431.029 577.87 430.74C577.815 430.733 577.764 430.707 577.726 430.666C577.688 430.625 577.665 430.573 577.662 430.517C577.658 430.462 577.674 430.407 577.706 430.362C577.739 430.317 577.786 430.284 577.84 430.27Z" fill="#263238"/>
<path d="M580.54 422C583.23 424 586.7 424.78 589.82 425.86C590.14 425.97 590.39 425.66 590.4 425.38C590.46 425.38 590.51 425.32 590.48 425.24C589.264 421.939 587.193 419.019 584.48 416.78C582.89 415.5 580.12 414.64 578.7 416.7C577.28 418.76 579 420.81 580.54 422ZM579.54 419C578.79 414.9 583.25 417 584.39 418C585.106 418.651 585.775 419.353 586.39 420.1C587.72 421.63 588.81 423.32 589.98 424.97C588.48 424.34 586.98 423.85 585.42 423.28C583.61 422.56 579.93 421.25 579.52 419H579.54Z" fill="#263238"/>
<path d="M602.87 419.24C601.87 416.92 599.04 417.17 597.21 418.08C594.096 419.703 591.464 422.117 589.58 425.08C589.571 425.093 589.566 425.108 589.565 425.124C589.563 425.14 589.566 425.156 589.572 425.17C589.577 425.185 589.587 425.198 589.599 425.208C589.61 425.219 589.624 425.226 589.64 425.23C589.58 425.51 589.76 425.87 590.1 425.83C593.38 425.44 596.93 425.43 599.99 424.05C601.78 423.23 603.78 421.43 602.87 419.24ZM594.95 424.24C593.34 424.47 591.73 424.62 590.13 424.91C591.574 423.5 593.089 422.165 594.67 420.91C595.446 420.313 596.261 419.768 597.11 419.28C598.43 418.56 603.23 417.49 601.62 421.34C600.74 423.45 596.86 423.94 595 424.21L594.95 424.24Z" fill="#263238"/>
<path opacity="0.2" d="M590.63 447.26C595.39 447.13 600.2 446.98 604.63 446.81C608.63 446.65 612.39 446.47 615.38 446.28C619.49 446.02 622.26 445.74 622.7 445.44C623.56 444.87 623.87 435.53 623.91 424.65C615.5 430.25 599 441.52 590.63 447.26Z" fill="black"/>
<path d="M583.64 426.86H625.64C625.64 426.86 623.34 332.37 623.79 330.17C624.87 324.91 648.79 241.61 648.79 241.61L615.64 242.18L604.32 242.37C604.32 242.37 605.32 256.25 604.9 257.72C599.36 277.93 588.55 312.44 586.34 325.23C582.45 347.44 583.64 426.86 583.64 426.86Z" fill="#263238"/>
<path d="M585 419.84C591.54 419.67 614.74 418.98 623.47 419.64C623.53 419.64 623.53 419.75 623.47 419.76C620.47 420.25 591.55 420.11 585 420.02C584.976 420.02 584.953 420.011 584.936 419.994C584.919 419.977 584.91 419.954 584.91 419.93C584.91 419.906 584.919 419.883 584.936 419.866C584.953 419.85 584.976 419.84 585 419.84Z" fill="#37474F"/>
<path d="M620.47 328.12C621.72 323.01 631.07 291.19 633.93 281.12C636.79 271.05 639.47 260.98 641.93 250.83C642.24 249.54 642.56 248.26 642.93 246.98C642.93 246.87 643.12 246.92 643.1 247.03C642.16 252.14 640.91 257.2 639.71 262.26C638.51 267.32 637.22 272.35 635.88 277.37C633.167 287.463 630.21 297.483 627.01 307.43C625.41 312.38 622.77 322.56 621.36 327.57C619.95 332.58 622.25 414.87 622.11 416.21C622.11 416.29 622.078 416.366 622.022 416.422C621.966 416.478 621.89 416.51 621.81 416.51C621.73 416.51 621.654 416.478 621.598 416.422C621.542 416.366 621.51 416.29 621.51 416.21C621.31 406.53 619.23 333.17 620.47 328.12Z" fill="#37474F"/>
<path d="M615.56 242.21C615.56 242.21 623.67 330.63 623.76 330.21C624.76 325.13 647.25 246.79 648.66 241.89L648.72 241.66L615.56 242.21Z" fill="#37474F"/>
<path d="M605.42 452.21C607.42 452.83 663.91 451.62 666.04 450.21C666.84 449.68 667.15 441.44 667.23 431.47C667.23 429.32 667.23 427.1 667.23 424.84C667.23 422.17 667.23 419.46 667.17 416.84C667.02 405.04 666.67 394.65 666.67 394.65L629.88 395.33L630.31 417.52L630.47 425.52L630.78 432.15C630.78 432.15 609.36 442.29 607.2 444.08C605.04 445.87 603.44 451.6 605.42 452.21Z" fill="#D3766A"/>
<path d="M605.42 452.21C607.42 452.83 663.91 451.62 666.04 450.21C666.84 449.68 667.15 441.44 667.23 431.47C667.23 429.32 667.23 427.1 667.23 424.84C667.23 422.17 667.23 419.46 667.17 416.84L630.31 417.52L630.47 425.52L630.78 432.15C630.78 432.15 609.36 442.29 607.2 444.08C605.04 445.87 603.44 451.6 605.42 452.21Z" fill="white"/>
<path d="M605.25 452.3C606.55 452.7 630.62 452.3 648.13 451.65C652.19 451.49 655.89 451.31 658.88 451.13C663 450.86 665.76 450.58 666.21 450.29C667.21 449.63 667.44 437.54 667.43 424.78L630.43 425.47L630.75 432.13C630.75 432.13 609.21 442.33 607.03 444.13C604.85 445.93 603.26 451.67 605.25 452.3Z" fill="#024A62"/>
<path d="M606 450C615.52 449.56 654 448.7 663.39 449C663.47 449 663.47 449.05 663.39 449.06C653.97 449.7 615.53 450.25 606 450.17C605.82 450.17 605.82 450 606 450Z" fill="#263238"/>
<path d="M629.39 430C633.12 429.22 637.72 429.7 640.64 432.31C640.75 432.41 640.64 432.57 640.48 432.54C636.875 431.455 633.164 430.764 629.41 430.48C629.346 430.483 629.284 430.46 629.237 430.417C629.19 430.374 629.163 430.314 629.16 430.25C629.157 430.186 629.18 430.124 629.223 430.077C629.266 430.03 629.326 430.003 629.39 430Z" fill="#263238"/>
<path d="M626.72 431.73C630.45 430.95 635.05 431.43 637.97 434.04C638.08 434.14 637.97 434.3 637.81 434.26C634.204 433.182 630.493 432.495 626.74 432.21C626.676 432.213 626.614 432.19 626.567 432.147C626.52 432.104 626.493 432.044 626.49 431.98C626.487 431.916 626.51 431.854 626.553 431.807C626.596 431.761 626.656 431.733 626.72 431.73Z" fill="#263238"/>
<path d="M624.05 433.42C627.78 432.64 632.38 433.12 635.3 435.73C635.41 435.83 635.3 435.99 635.14 435.95C631.533 434.874 627.822 434.183 624.07 433.89C624.015 433.881 623.965 433.854 623.928 433.813C623.891 433.771 623.87 433.718 623.868 433.663C623.865 433.608 623.882 433.553 623.915 433.509C623.949 433.465 623.996 433.433 624.05 433.42Z" fill="#263238"/>
<path d="M621.38 435.11C625.11 434.33 629.71 434.81 632.63 437.41C632.74 437.52 632.63 437.68 632.47 437.64C628.864 436.559 625.153 435.869 621.4 435.58C621.345 435.571 621.295 435.544 621.258 435.503C621.221 435.461 621.2 435.409 621.198 435.353C621.195 435.298 621.212 435.243 621.245 435.199C621.279 435.155 621.326 435.123 621.38 435.11Z" fill="#263238"/>
<path d="M624.07 426.83C626.77 428.83 630.24 429.6 633.36 430.68C633.68 430.79 633.93 430.48 633.93 430.2C633.946 430.2 633.962 430.195 633.977 430.187C633.991 430.179 634.003 430.168 634.012 430.154C634.021 430.14 634.027 430.124 634.028 430.108C634.029 430.092 634.026 430.075 634.02 430.06C632.799 426.761 630.729 423.843 628.02 421.6C626.43 420.32 623.67 419.47 622.24 421.53C620.81 423.59 622.5 425.66 624.07 426.83ZM623.07 423.83C622.32 419.73 626.78 421.83 627.91 422.83C628.621 423.486 629.289 424.188 629.91 424.93C631.186 426.491 632.381 428.116 633.49 429.8C631.99 429.17 630.49 428.68 628.93 428.12C627.15 427.4 623.47 426.09 623.06 423.83H623.07Z" fill="#263238"/>
<path d="M646.41 424.08C645.41 421.77 642.57 422.01 640.74 422.92C637.63 424.544 635.002 426.959 633.12 429.92C633.107 429.929 633.097 429.941 633.09 429.955C633.083 429.969 633.08 429.984 633.08 430C633.08 430.015 633.083 430.031 633.09 430.045C633.097 430.059 633.107 430.071 633.12 430.08C633.12 430.36 633.24 430.71 633.58 430.67C636.86 430.28 640.41 430.27 643.47 428.89C645.31 428.07 647.31 426.28 646.41 424.08ZM638.48 429.08C636.87 429.31 635.27 429.46 633.67 429.75C635.114 428.34 636.629 427.005 638.21 425.75C638.982 425.155 639.794 424.614 640.64 424.13C641.97 423.4 646.77 422.34 645.16 426.18C644.27 428.29 640.4 428.78 638.48 429.05V429.08Z" fill="#263238"/>
<path d="M628.33 431.13L669.06 430.38C669.06 430.38 657.62 283.48 659.06 275.69C661.39 262.95 659.41 248.41 653.28 241.51L613.59 242.24C613.59 242.24 613 253.39 617.21 260C617.21 260 620.98 262.28 622.8 263.29L628.33 431.13Z" fill="#263238"/>
<path d="M629.45 423.9C635.63 423.63 633.85 423.62 640.03 423.41C643.03 423.31 662.92 422.66 665.76 423.07C665.82 423.07 665.82 423.18 665.76 423.19C662.95 423.73 643.07 424.03 640.05 424.07C633.86 424.16 635.64 424.07 629.46 424.07C629.442 424.065 629.426 424.054 629.414 424.04C629.402 424.025 629.395 424.007 629.394 423.989C629.393 423.97 629.398 423.951 629.408 423.935C629.418 423.919 629.433 423.907 629.45 423.9Z" fill="#37474F"/>
<path d="M614.7 258.23C618.634 260.04 622.408 262.181 625.98 264.63C626.01 264.647 626.033 264.676 626.042 264.71C626.051 264.743 626.047 264.78 626.03 264.81C626.013 264.841 625.984 264.863 625.95 264.872C625.916 264.882 625.88 264.877 625.85 264.86C622.04 262.86 618.14 260.86 614.44 258.67C614.394 258.63 614.364 258.575 614.354 258.516C614.345 258.456 614.356 258.394 614.387 258.342C614.418 258.29 614.466 258.25 614.523 258.23C614.58 258.209 614.643 258.209 614.7 258.23Z" fill="#37474F"/>
<path d="M619.74 257.56C619.99 258.325 620.188 259.107 620.33 259.9C620.499 260.515 620.55 261.156 620.48 261.79C620.48 261.91 620.29 261.9 620.23 261.79C619.913 261.199 619.693 260.561 619.58 259.9C619.38 259.18 619.16 258.46 618.98 257.73C618.964 257.632 618.986 257.531 619.041 257.448C619.097 257.366 619.182 257.307 619.279 257.286C619.377 257.264 619.479 257.28 619.564 257.331C619.65 257.382 619.713 257.464 619.74 257.56Z" fill="#37474F"/>
<path d="M620 253.73C619.88 253.07 619.76 252.41 619.63 251.73C619.5 251.05 619.31 250.36 619.23 249.67C619.23 249.57 619.04 249.6 619.06 249.67C619.18 250.33 619.2 251.02 619.27 251.67C619.34 252.32 619.41 253.01 619.49 253.67C619.64 254.92 619.87 256.17 620.14 257.4C619.483 257.303 618.857 257.057 618.31 256.68C617.787 256.171 617.437 255.509 617.31 254.79C617.1 254.03 616.93 253.27 616.71 252.52C616.422 251.698 616.211 250.851 616.08 249.99C616.08 249.88 615.89 249.92 615.91 249.99C616.101 251.796 616.472 253.578 617.02 255.31C617.26 256 617.42 256.69 618.02 257.06C618.712 257.42 619.472 257.631 620.25 257.68C620.34 257.73 620.47 257.68 620.46 257.57C620.4 256.39 620.26 255 620 253.73Z" fill="#37474F"/>
<path d="M652.59 275.3C652.82 272.38 653.24 269.48 653.51 266.56C653.998 260.707 653.531 254.814 652.13 249.11C652.13 249 652.27 248.96 652.29 249.06C653.51 254.072 654.128 259.212 654.13 264.37C653.98 269.52 653.13 274.61 653.13 279.77C653.13 284.93 653.65 290.2 654.13 295.4C654.61 300.6 655 305.87 655.44 311.1C657.18 332.1 658.82 353.17 660.49 374.21C660.96 380.08 661.4 385.96 661.85 391.83C662.3 397.7 663 412.55 663.33 418.54C663.33 419.06 662.59 419.03 662.53 418.54C661.44 408 660.53 388.63 659.7 378.06C658.87 367.49 658.03 357.13 657.19 346.66C656.35 336.19 655.54 325.73 654.72 315.27C654.31 310.04 653.92 304.8 653.52 299.57C653.12 294.34 652.64 289.14 652.52 283.92C652.383 281.048 652.406 278.17 652.59 275.3Z" fill="#37474F"/>
<path d="M638.05 249C638.055 248.985 638.066 248.972 638.079 248.962C638.092 248.953 638.108 248.948 638.125 248.948C638.141 248.948 638.157 248.953 638.17 248.962C638.184 248.972 638.194 248.985 638.2 249C638.453 249.683 638.595 250.402 638.62 251.13C638.752 251.908 638.946 252.673 639.2 253.42C639.666 254.941 640.512 256.318 641.66 257.42C644.2 259.71 647.56 260.51 650.8 261.24C650.92 261.24 650.88 261.43 650.8 261.44C648.891 261.555 646.978 261.293 645.17 260.67C643.555 260.21 642.058 259.408 640.78 258.32C639.561 257.198 638.716 255.728 638.36 254.11C638.178 253.268 638.071 252.411 638.04 251.55C638.04 251.14 638.04 250.72 638.04 250.31C637.95 249.878 637.954 249.431 638.05 249Z" fill="#37474F"/>
<path d="M622.46 188.05C605.87 200.36 578.87 201.47 575.86 200.05C569.49 197.12 560.23 169.61 557.99 159.58C557.35 156.68 578.34 157.4 580.44 159.78C582.36 161.95 586.98 180.96 588.91 181.24C598.561 181.545 608.221 181.278 617.84 180.44C631.76 179 627.37 184.41 622.46 188.05Z" fill="#D3766A"/>
<path d="M602 179.82L604.49 199.25C604.49 199.25 619.26 193.47 625.69 187.54C632.12 181.61 628.45 179.43 622.03 179.1C615.61 178.77 602 179.82 602 179.82Z" fill="#EBEBEB"/>
<path d="M605.19 180.43C605.19 180.3 605.26 180.25 605.28 180.38C606.315 185.765 607.017 191.209 607.38 196.68C607.38 196.68 607.32 196.68 607.31 196.68C606.63 194.06 605.41 181.83 605.19 180.43Z" fill="#263238"/>
<path d="M661.24 254.32C661.1 254.48 602.34 255.73 601.8 255.14C601.03 254.3 610.51 195.37 619.8 182.51C622.12 179.3 630.46 177.09 633.93 180.34C644.01 189.75 646.13 197.69 648.77 204.16C651.334 211.158 653.488 218.301 655.22 225.55C658.78 239.39 661.71 253.76 661.24 254.32Z" fill="#EBEBEB"/>
<path d="M635 180.48C635 180.48 626.35 200.22 624.93 205.26C622.98 212.16 620.13 257.64 620.13 257.64L662.13 255.18C662.13 255.18 654.13 209.71 644.98 193.57C637.8 180.87 635 180.48 635 180.48Z" fill="#024A62"/>
<path d="M621.33 181.43C621.33 181.43 616.45 199.43 615.49 202.15C614.53 204.87 606 257.67 606 257.67L600.82 255.74C600.82 255.74 606.65 219.18 611.82 200.56C616.99 181.94 621.33 181.43 621.33 181.43Z" fill="#024A62"/>
<path d="M621.32 239.85L658.94 239.77C658.62 238.36 658.29 236.88 657.94 235.35L621.67 235.42C621.53 236.92 621.43 238.4 621.32 239.85Z" fill="#EBEBEB"/>
<path d="M603.54 239.88H608.92C609.15 238.44 609.4 236.96 609.65 235.46H604.34C604.06 237 603.79 238.46 603.54 239.88Z" fill="#EBEBEB"/>
<path d="M620.76 247.61L660.6 247.53C660.32 246.19 660.01 244.71 659.67 243.12L621.08 243.2C621 244.76 620.86 246.24 620.76 247.61Z" fill="#EBEBEB"/>
<path d="M602.18 247.65H607.65C607.87 246.26 608.11 244.78 608.36 243.23H602.94C602.67 244.82 602.41 246.3 602.18 247.65Z" fill="#EBEBEB"/>
<path d="M641.44 193.27C643.68 209.75 640.53 232.68 636.78 235.35C626.08 242.96 607.67 247.01 599.84 247.92C595.28 248.45 593.39 225.92 597.42 225.23C603.78 224.17 619 220.94 621.16 219.97C623.32 219 627.5 203.97 631.44 193.06C635.72 181.21 640.36 185.29 641.44 193.27Z" fill="#D3766A"/>
<path d="M602.46 226C598.972 223.653 595.846 220.81 593.18 217.56C590.18 213.56 586.09 207.32 583.88 208.87C579.36 212.06 589.49 227.67 589.49 227.67C589.49 227.67 595.06 233.84 599.83 231.07C600.692 230.548 601.394 229.799 601.857 228.905C602.321 228.01 602.53 227.005 602.46 226Z" fill="#D3766A"/>
<path d="M571.16 226.56C570.959 227.246 570.974 227.977 571.201 228.654C571.428 229.332 571.857 229.923 572.43 230.35C571.495 231.126 570.861 232.205 570.64 233.4C570.34 235.52 573.54 236.91 573.54 236.91C572.736 237.914 572.254 239.137 572.16 240.42C572.08 242.48 575.1 244.34 575.1 244.34C574.875 245.674 575.138 247.044 575.84 248.2C577.84 251.2 583.34 251.06 586.84 251.01C590.34 250.96 600.23 247.52 602.18 247.01L602 224.56C602 224.56 586.22 220.34 582.11 220.99C578.67 221.54 572 224 571.16 226.56Z" fill="#D3766A"/>
<path d="M572.58 230C576.12 228.53 579.9 228.2 583.66 227.64C583.74 227.64 583.76 227.76 583.66 227.77C579.92 228.28 576.32 229.52 572.66 230.18C572.637 230.186 572.613 230.183 572.592 230.173C572.571 230.163 572.554 230.145 572.544 230.124C572.535 230.102 572.533 230.078 572.54 230.055C572.546 230.033 572.56 230.013 572.58 230Z" fill="#263238"/>
<path d="M573.61 236.61C574.445 236.36 575.309 236.219 576.18 236.19C577.11 236.1 578.03 236.02 578.95 235.97C580.8 235.85 582.66 235.77 584.51 235.75C584.59 235.75 584.61 235.88 584.51 235.88C582.66 236 580.82 236.15 578.98 236.35C578.07 236.45 577.15 236.55 576.23 236.67C575.369 236.826 574.494 236.893 573.62 236.87C573.593 236.861 573.57 236.844 573.554 236.821C573.537 236.798 573.528 236.771 573.527 236.743C573.526 236.715 573.533 236.688 573.548 236.664C573.563 236.64 573.584 236.621 573.61 236.61Z" fill="#263238"/>
<path d="M575.18 244.34C575.939 244.119 576.731 244.031 577.52 244.08L580.05 243.95C581.74 243.86 583.43 243.77 585.11 243.62C585.19 243.62 585.21 243.75 585.11 243.75C583.4 243.91 581.69 244.1 579.98 244.24L577.46 244.44C576.699 244.575 575.921 244.575 575.16 244.44C575.16 244.44 575.15 244.35 575.18 244.34Z" fill="#263238"/>
<path d="M625.24 208.82L644.24 213.82C644.24 213.82 644.41 197.96 641.32 189.82C638.23 181.68 634.84 184.23 632.13 190.06C629.42 195.89 625.24 208.82 625.24 208.82Z" fill="#EBEBEB"/>
<path d="M627 206.1C626.87 206.1 626.85 205.98 627 206C632.38 207.059 637.69 208.449 642.9 210.16C642.9 210.16 642.9 210.24 642.9 210.23C640.17 209.88 628.37 206.43 627 206.1Z" fill="#263238"/>
<path d="M663.78 149.24C668.031 149.39 672.155 150.724 675.689 153.091C679.222 155.459 682.025 158.766 683.78 162.64L665.08 162L661.08 172.05L664.33 182.35L683.04 183.02C681.097 186.6 678.234 189.595 674.745 191.697C671.256 193.798 667.27 194.93 663.197 194.974C659.125 195.019 655.114 193.974 651.581 191.949C648.047 189.924 645.119 186.991 643.099 183.455C641.079 179.918 640.04 175.907 640.09 171.834C640.14 167.762 641.277 163.777 643.384 160.291C645.491 156.805 648.49 153.946 652.073 152.008C655.655 150.071 659.69 149.125 663.76 149.27L663.78 149.24Z" fill="#455A64"/>
<path d="M530.86 190.22C526.609 190.07 522.485 188.736 518.951 186.369C515.417 184.001 512.615 180.694 510.86 176.82L529.56 177.49L533.56 167.49L530.31 157.18L511.6 156.51C513.543 152.93 516.407 149.934 519.896 147.833C523.385 145.731 527.372 144.6 531.445 144.556C535.518 144.512 539.529 145.557 543.062 147.583C546.596 149.609 549.524 152.543 551.543 156.08C553.563 159.617 554.601 163.63 554.549 167.702C554.498 171.775 553.36 175.76 551.252 179.246C549.144 182.731 546.143 185.59 542.559 187.526C538.976 189.462 534.94 190.406 530.87 190.26L530.86 190.22Z" fill="#455A64"/>
<path d="M544.701 157.647L543.973 177.994L655.072 181.971L655.8 161.624L544.701 157.647Z" fill="#455A64"/>
<path d="M577.251 164.822L576.949 173.207L622.7 174.852L623.001 166.468L577.251 164.822Z" fill="#37474F"/>
<path d="M623.52 188.5C625.95 188.98 631.73 185.15 634.29 181.58C634.46 181.34 634.4 178.52 634.48 175.1C634.54 173.03 634.65 170.72 634.91 168.62L621.35 170.21C621.777 172.928 621.874 175.688 621.64 178.43C621.597 178.718 621.53 179.003 621.44 179.28C621.44 179.28 621.44 179.37 621.44 179.42C620.94 181 619.71 187.76 623.52 188.5Z" fill="#D3766A"/>
<path d="M621.44 179.28C621.448 179.326 621.448 179.374 621.44 179.42C621.883 179.536 622.334 179.616 622.79 179.66C630.44 180.42 633.49 171.26 634.18 168.72L621.38 170.21C621.812 172.928 621.913 175.688 621.68 178.43C621.619 178.718 621.539 179.002 621.44 179.28Z" fill="#263238"/>
<path d="M637.32 150.85C638.75 155.56 636.26 169.14 632.91 172.17C628.06 176.56 620.12 176.98 616.39 171.17C612.77 165.51 616.33 147.86 620.07 145.11C625.58 141 635.2 143.9 637.32 150.85Z" fill="#D3766A"/>
<path d="M626 159.22C626 159.22 626.06 159.28 626 159.31C625.76 160.21 625.65 161.31 626.41 161.77C625.46 161.46 625.62 160 626 159.22Z" fill="#263238"/>
<path d="M627 158.45C628.48 158.67 627.94 161.62 626.57 161.45C625.2 161.28 625.76 158.27 627 158.45Z" fill="#263238"/>
<path d="M620.27 158.1C620.27 158.1 620.19 158.1 620.19 158.16C620.05 159.08 619.73 160.16 618.85 160.27C619.89 160.36 620.29 159 620.27 158.1Z" fill="#263238"/>
<path d="M619.63 157C618.18 156.62 617.52 159.55 618.87 159.9C620.22 160.25 620.85 157.31 619.63 157Z" fill="#263238"/>
<path d="M628.42 157.31C628.052 157.126 627.695 156.923 627.35 156.7C626.94 156.46 626.59 156.31 626.35 155.87C626.301 155.738 626.299 155.593 626.342 155.459C626.386 155.324 626.473 155.209 626.59 155.13C626.843 155.009 627.123 154.957 627.402 154.98C627.682 155.002 627.95 155.099 628.18 155.26C628.694 155.513 629.097 155.948 629.31 156.48C629.346 156.601 629.347 156.73 629.314 156.852C629.281 156.974 629.214 157.084 629.122 157.17C629.029 157.257 628.915 157.315 628.791 157.34C628.667 157.365 628.538 157.354 628.42 157.31Z" fill="#263238"/>
<path d="M618.81 155.65C619.221 155.645 619.632 155.615 620.04 155.56C620.478 155.589 620.914 155.473 621.28 155.23C621.38 155.131 621.444 155.002 621.462 154.862C621.481 154.723 621.451 154.581 621.38 154.46C621.205 154.241 620.975 154.072 620.713 153.972C620.45 153.871 620.166 153.843 619.89 153.89C619.314 153.89 618.76 154.108 618.34 154.5C618.249 154.595 618.187 154.714 618.163 154.843C618.138 154.972 618.152 155.106 618.201 155.228C618.251 155.349 618.335 155.454 618.443 155.529C618.551 155.604 618.678 155.646 618.81 155.65Z" fill="#263238"/>
<path d="M624.49 167.84C624.256 168.071 623.948 168.213 623.62 168.24C623.281 168.173 622.96 168.033 622.68 167.83C622.62 167.83 622.68 167.83 622.68 167.83C622.781 168.034 622.934 168.207 623.124 168.331C623.314 168.456 623.533 168.528 623.76 168.54C623.954 168.523 624.139 168.449 624.291 168.328C624.444 168.208 624.558 168.045 624.62 167.86C624.6 167.85 624.53 167.82 624.49 167.84Z" fill="#263238"/>
<path d="M624 164.93C623.701 165.248 623.34 165.501 622.939 165.673C622.538 165.845 622.106 165.933 621.67 165.93C621.288 165.934 620.907 165.884 620.54 165.78L620.33 165.72L620.13 165.65C620.085 165.629 620.047 165.595 620.022 165.552C619.997 165.509 619.985 165.46 619.99 165.41C619.985 165.38 619.985 165.35 619.99 165.32V165.24C620.1 164.54 620.37 163.48 620.37 163.48C620.08 163.56 618.66 163.91 618.75 163.54C619.414 160.378 620.399 157.292 621.69 154.33C621.702 154.315 621.718 154.305 621.736 154.3C621.755 154.295 621.774 154.296 621.792 154.302C621.809 154.309 621.824 154.321 621.835 154.337C621.845 154.352 621.851 154.371 621.85 154.39C621.25 157.31 620.15 160.11 619.5 163.04C620.006 162.909 620.528 162.852 621.05 162.87C621.15 162.87 620.51 164.87 620.48 165.23C621.047 165.394 621.641 165.442 622.227 165.371C622.812 165.301 623.378 165.114 623.89 164.82C624 164.79 624.1 164.86 624 164.93Z" fill="#263238"/>
<path d="M621.05 165.5C621.344 166.075 621.781 166.564 622.32 166.92C622.62 167.103 622.97 167.187 623.32 167.16C624.08 167.16 624.23 166.44 624.2 165.84C624.177 165.522 624.12 165.206 624.03 164.9C623.125 165.41 622.082 165.62 621.05 165.5Z" fill="#263238"/>
<path d="M622.32 166.92C622.62 167.103 622.97 167.187 623.32 167.16C624.08 167.16 624.23 166.44 624.2 165.84C623.811 165.783 623.413 165.858 623.072 166.054C622.731 166.25 622.466 166.555 622.32 166.92Z" fill="#FF9BBC"/>
<path d="M617.81 148.54C618.01 148.15 618.56 147.2 619.09 147.23C619.62 147.26 620.09 148.42 621.34 148.87C623.06 149.53 626.34 147.87 628.72 148.75C631.1 149.63 632.34 152.09 632.42 156.47C632.5 160.85 635.6 164.66 636.83 161.9C636.83 161.8 636.94 161.62 637.06 161.36C637.8 157.24 638 153.06 637.32 150.85C635.2 143.9 625.57 141.03 620.07 145.09C619.047 146.039 618.271 147.223 617.81 148.54Z" fill="#263238"/>
<path d="M634.41 161.92C634.41 161.92 637.57 157.59 639.54 158.73C641.51 159.87 639.07 166.19 636.71 167.01C636.415 167.138 636.098 167.204 635.777 167.205C635.456 167.206 635.138 167.142 634.843 167.017C634.547 166.892 634.28 166.708 634.058 166.476C633.836 166.245 633.663 165.97 633.55 165.67L634.41 161.92Z" fill="#D3766A"/>
<path d="M638.8 160.53C638.8 160.53 638.8 160.58 638.8 160.59C638.038 160.949 637.361 161.463 636.811 162.101C636.262 162.738 635.852 163.484 635.61 164.29C635.708 164.123 635.841 163.979 636.001 163.87C636.161 163.76 636.343 163.688 636.534 163.657C636.726 163.626 636.921 163.639 637.107 163.693C637.293 163.747 637.465 163.842 637.61 163.97C637.61 163.97 637.61 164.07 637.61 164.06C637.324 163.963 637.016 163.955 636.726 164.04C636.436 164.124 636.179 164.295 635.99 164.53C635.68 164.932 635.412 165.364 635.19 165.82C635.11 165.97 634.84 165.88 634.9 165.72C634.86 163.58 636.55 160.69 638.8 160.53Z" fill="#263238"/>
<path d="M615.84 150.37C615.84 150.37 619.84 137.3 631.55 140.81C643.26 144.32 639.41 157.44 639.41 157.44L615.84 150.37Z" fill="#024A62"/>
<path d="M640.542 156.801L615.217 149.204L614.66 151.062L639.984 158.66L640.542 156.801Z" fill="#024A62"/>
<path d="M627.71 152.92L622.44 151.34L627.53 138.87L632.8 140.45L627.71 152.92Z" fill="#024A62"/>
<path opacity="0.1" d="M627.71 152.92L622.44 151.34L627.53 138.87L632.8 140.45L627.71 152.92Z" fill="black"/>
<path d="M557.08 172.09C559.63 173.81 560.2 169.81 560.2 169.81C560.2 169.81 560.77 175.81 564.1 176.52C567.43 177.23 567.82 172.38 567.86 172.04C567.86 172.35 568.56 177.81 571.98 178.23C575.4 178.65 575.21 173.69 575.19 173.37C575.32 173.66 577.03 177.43 579.7 177.16C584.28 176.68 580.3 165.49 581.86 162.1L588.64 160.55C586.904 160.116 585.331 159.189 584.11 157.88C582.29 156.04 581.11 154.81 579.56 154.3C578.877 154.05 578.132 154.027 577.434 154.234C576.737 154.441 576.125 154.867 575.69 155.45C575.69 155.45 574.82 152.29 572.14 151.88C570.76 151.67 569.2 153.69 569.2 153.69C568.966 152.99 568.544 152.368 567.979 151.894C567.415 151.419 566.729 151.11 566 151C564.08 150.82 562.81 152.88 562.81 152.88C562.81 152.88 560.93 150.88 558.91 151.29C554.83 152.16 551.6 168.39 557.08 172.09Z" fill="#D3766A"/>
<path d="M583.36 161.5L588.5 160.56L589.04 160.32C595.04 157.4 596.96 149.06 592.23 149.82C588.63 150.4 586.15 156.07 582.38 156.13L583.36 161.5Z" fill="#D3766A"/>
<path d="M562.56 153.14H562.48C560.018 158.396 559.206 164.274 560.15 170C560.15 170.18 560.49 170.21 560.49 170C560.363 164.31 561.06 158.631 562.56 153.14Z" fill="#263238"/>
<path d="M569.19 153.6C569.19 153.54 569.1 153.51 569.07 153.6C566.406 159.44 565.91 166.037 567.67 172.21C567.74 172.43 568.02 172.55 567.96 172.3C567 168 567.7 158.74 569.19 153.6Z" fill="#263238"/>
<path d="M575.48 173.76C573.81 167.76 574.24 161.76 575.57 155.66C575.57 155.58 575.48 155.56 575.44 155.66C573.98 158.46 573.54 162.42 573.44 165.53C573.306 168.417 573.93 171.289 575.25 173.86C575.32 173.92 575.52 173.89 575.48 173.76Z" fill="#263238"/>
</svg>
