<svg width="206" height="123" viewBox="0 0 206 123" fill="none" xmlns="http://www.w3.org/2000/svg">
<path d="M46.02 76.01H0V79.88H46.02V76.01Z" fill="#DBDBDB"/>
<path d="M133.18 84.9901H0V88.86H133.18V84.9901Z" fill="#DBDBDB"/>
<path d="M133.18 93.5101H0V97.3801H133.18V93.5101Z" fill="#DBDBDB"/>
<path d="M133.18 102.03H0V105.9H133.18V102.03Z" fill="#DBDBDB"/>
<path d="M133.18 110.55H0V114.42H133.18V110.55Z" fill="#DBDBDB"/>
<path d="M133.18 119.06H0V122.93H133.18V119.06Z" fill="#DBDBDB"/>
<path d="M156.93 0H110.91V10.36H156.93V0Z" fill="#DBDBDB"/>
<path d="M205.46 17.5H110.91V21.37H205.46V17.5Z" fill="#DBDBDB"/>
<path d="M205.46 26.02H110.91V29.89H205.46V26.02Z" fill="#DBDBDB"/>
<path d="M205.46 34.54H110.91V38.41H205.46V34.54Z" fill="#DBDBDB"/>
<path d="M205.46 43.0601H110.91V46.9301H205.46V43.0601Z" fill="#DBDBDB"/>
<path d="M205.46 54.39H110.91V58.26H205.46V54.39Z" fill="#DBDBDB"/>
<path d="M205.46 62.91H110.91V66.78H205.46V62.91Z" fill="#DBDBDB"/>
</svg>
