<svg
className=' max-sm:top-8 max-sm:w-9 animate-spin-reverse absolute z-20 right-6 top-11 w-11'
 width="75" height="75" viewBox="0 0 75 75" fill="none" xmlns="http://www.w3.org/2000/svg">
<path d="M37.71 7.02997C31.6816 7.02997 25.7886 8.81759 20.7762 12.1668C15.7638 15.516 11.8571 20.2763 9.55015 25.8458C7.24319 31.4153 6.63958 37.5438 7.81566 43.4563C8.99173 49.3689 11.8947 54.7999 16.1574 59.0626C20.4201 63.3253 25.8511 66.2282 31.7637 67.4043C37.6762 68.5804 43.8047 67.9768 49.3742 65.6698C54.9437 63.3629 59.704 59.4562 63.0532 54.4437C66.4024 49.4313 68.19 43.5383 68.19 37.51C68.1913 33.5069 67.4038 29.5428 65.8725 25.8442C64.3412 22.1456 62.0961 18.785 59.2655 15.9544C56.435 13.1238 53.0744 10.8787 49.3758 9.34744C45.6772 7.81615 41.7131 7.02866 37.71 7.02997ZM37.71 51.73C34.8956 51.728 32.145 50.8915 29.806 49.3262C27.4669 47.761 25.6446 45.5373 24.5694 42.9363C23.4942 40.3354 23.2144 37.474 23.7654 34.714C24.3164 31.9541 25.6735 29.4195 27.665 27.4308C29.6565 25.4421 32.1929 24.0886 34.9537 23.5415C37.7144 22.9943 40.5754 23.2781 43.1748 24.357C45.7743 25.4359 47.9954 27.2613 49.5574 29.6025C51.1193 31.9437 51.952 34.6955 51.95 37.51C51.95 39.379 51.5815 41.2298 50.8656 42.9563C50.1498 44.6829 49.1006 46.2514 47.778 47.5721C46.4554 48.8928 44.8854 49.9398 43.1579 50.6533C41.4303 51.3667 39.5791 51.7326 37.71 51.73Z" fill="#EBEBEB"/>
<path d="M43.5701 8.3H31.8501L32.5001 0H42.9301L43.5701 8.3Z" fill="#EBEBEB"/>
<path d="M21.2701 12.25L12.9801 20.53L7.58008 14.21L14.9501 6.84003L21.2701 12.25Z" fill="#EBEBEB"/>
<path d="M8.29004 30.81V42.53L0 41.88V31.46L8.29004 30.81Z" fill="#EBEBEB"/>
<path d="M12.2401 53.11L20.5201 61.4L14.2001 66.8L6.83008 59.44L12.2401 53.11Z" fill="#EBEBEB"/>
<path d="M30.8 66.09H42.52L41.8701 74.39H31.45L30.8 66.09Z" fill="#EBEBEB"/>
<path d="M53.1001 62.14L61.3901 53.86L66.8001 60.18L59.4301 67.55L53.1001 62.14Z" fill="#EBEBEB"/>
<path d="M66.0801 43.58V31.86L74.3801 32.51V42.93L66.0801 43.58Z" fill="#EBEBEB"/>
<path d="M62.1401 21.28L53.8501 12.99L60.1701 7.58002L67.5401 14.95L62.1401 21.28Z" fill="#EBEBEB"/>
</svg>
