<svg width="40" height="40" viewBox="0 0 40 40" fill="none" xmlns="http://www.w3.org/2000/svg">
<path d="M33.73 34.91L39.62 25.42L36.68 23.62C36.2647 23.3569 35.93 22.9843 35.713 22.5432C35.496 22.102 35.405 21.6096 35.45 21.12C35.5018 20.5649 35.5185 20.0072 35.5 19.45C35.4889 18.9595 35.6127 18.4755 35.8578 18.0505C36.1029 17.6255 36.4599 17.276 36.89 17.04L39.89 15.43L34.68 5.58L31.68 7.23C31.2465 7.45793 30.7584 7.56174 30.2697 7.52998C29.7809 7.49821 29.3104 7.33212 28.91 7.05C28.45 6.73 27.97 6.44 27.49 6.17C27.0551 5.93888 26.6934 5.59069 26.446 5.16481C26.1986 4.73892 26.0753 4.25231 26.09 3.76L26.2 0.34L15.03 0L14.93 3.43C14.908 3.92137 14.7506 4.39711 14.4753 4.80473C14.2001 5.21235 13.8176 5.53601 13.37 5.74C13.13 5.85 12.88 5.98 12.64 6.11C12.4 6.24 12.16 6.37 11.92 6.52C11.5021 6.77228 11.0231 6.90562 10.535 6.90562C10.0468 6.90562 9.56789 6.77228 9.14996 6.52L6.21997 4.7L0.299988 14.23L3.21002 16.04C3.62614 16.3023 3.96139 16.6747 4.17853 17.1161C4.39567 17.5574 4.48616 18.0503 4.44 18.54C4.39006 19.0918 4.37003 19.646 4.38 20.2C4.3943 20.6898 4.273 21.1741 4.02948 21.5994C3.78596 22.0247 3.4297 22.3744 3 22.61L0 24.23L5.27997 34.07L8.27997 32.46C8.71195 32.2284 9.19992 32.1216 9.68915 32.1517C10.1784 32.1817 10.6496 32.3473 11.05 32.63C11.5077 32.9479 11.9816 33.2416 12.47 33.51C12.9034 33.7429 13.2638 34.0915 13.5109 34.517C13.7581 34.9424 13.8824 35.4281 13.87 35.92L13.76 39.34L24.92 39.69L25.03 36.26C25.0518 35.7711 25.208 35.2978 25.4815 34.892C25.755 34.4862 26.1351 34.1637 26.58 33.96C26.83 33.84 27.08 33.72 27.32 33.58L28.04 33.18C28.4598 32.9227 28.9426 32.7866 29.435 32.7866C29.9274 32.7866 30.4102 32.9227 30.83 33.18L33.73 34.91ZM24.28 27.86C22.6859 28.7113 20.8753 29.071 19.0769 28.8936C17.2785 28.7162 15.573 28.0097 14.176 26.8633C12.779 25.7169 11.7533 24.1821 11.2283 22.4529C10.7034 20.7237 10.7028 18.8776 11.2267 17.1481C11.7506 15.4186 12.7754 13.8831 14.1716 12.7359C15.5679 11.5886 17.273 10.881 19.0713 10.7025C20.8696 10.524 22.6805 10.8825 24.275 11.7329C25.8696 12.5832 27.1763 13.8872 28.03 15.48C28.5975 16.5389 28.9508 17.6993 29.0695 18.8949C29.1881 20.0904 29.07 21.2976 28.7217 22.4475C28.3734 23.5973 27.8018 24.6672 27.0397 25.5959C26.2775 26.5246 25.3397 27.294 24.28 27.86Z" fill="#EBEBEB"/>
</svg>
